BenchNine-Heavy.ufo
<glyph name="numbersign" format="1">
  <advance width="761"/>
  <unicode hex="0023"/>
  <outline>
    <contour>
      <point x="129" y="-134" type="curve" smooth="yes"/>
      <point x="229" y="-134" type="line" smooth="yes"/>
      <point x="236" y="-134"/>
      <point x="243" y="-120"/>
      <point x="244" y="-99" type="curve" smooth="yes"/>
      <point x="286" y="381" type="line"/>
      <point x="408" y="381" type="line"/>
      <point x="367" y="-99" type="line" smooth="yes"/>
      <point x="365" y="-116"/>
      <point x="370" y="-134"/>
      <point x="375" y="-134" type="curve" smooth="yes"/>
      <point x="470" y="-134" type="line" smooth="yes"/>
      <point x="478" y="-134"/>
      <point x="485" y="-120"/>
      <point x="486" y="-99" type="curve" smooth="yes"/>
      <point x="528" y="381" type="line"/>
      <point x="611" y="381" type="line" smooth="yes"/>
      <point x="626" y="381"/>
      <point x="635" y="395"/>
      <point x="635" y="438" type="curve" smooth="yes"/>
      <point x="635" y="479" type="line" smooth="yes"/>
      <point x="635" y="522"/>
      <point x="626" y="536"/>
      <point x="611" y="536" type="curve" smooth="yes"/>
      <point x="546" y="536" type="line"/>
      <point x="567" y="807" type="line"/>
      <point x="642" y="807" type="line" smooth="yes"/>
      <point x="656" y="807"/>
      <point x="665" y="821"/>
      <point x="665" y="864" type="curve" smooth="yes"/>
      <point x="665" y="909" type="line" smooth="yes"/>
      <point x="665" y="952"/>
      <point x="656" y="966"/>
      <point x="642" y="966" type="curve" smooth="yes"/>
      <point x="584" y="966" type="line"/>
      <point x="630" y="1472" type="line" smooth="yes"/>
      <point x="632" y="1489"/>
      <point x="628" y="1507"/>
      <point x="621" y="1507" type="curve" smooth="yes"/>
      <point x="527" y="1507" type="line" smooth="yes"/>
      <point x="519" y="1507"/>
      <point x="512" y="1493"/>
      <point x="511" y="1472" type="curve" smooth="yes"/>
      <point x="464" y="966" type="line"/>
      <point x="342" y="966" type="line"/>
      <point x="388" y="1472" type="line" smooth="yes"/>
      <point x="389" y="1489"/>
      <point x="385" y="1507"/>
      <point x="379" y="1507" type="curve" smooth="yes"/>
      <point x="281" y="1507" type="line" smooth="yes"/>
      <point x="274" y="1507"/>
      <point x="266" y="1493"/>
      <point x="264" y="1472" type="curve" smooth="yes"/>
      <point x="218" y="966" type="line"/>
      <point x="138" y="966" type="line" smooth="yes"/>
      <point x="124" y="966"/>
      <point x="115" y="952"/>
      <point x="115" y="909" type="curve" smooth="yes"/>
      <point x="115" y="864" type="line" smooth="yes"/>
      <point x="115" y="821"/>
      <point x="124" y="807"/>
      <point x="138" y="807" type="curve" smooth="yes"/>
      <point x="200" y="807" type="line"/>
      <point x="179" y="536" type="line"/>
      <point x="108" y="536" type="line" smooth="yes"/>
      <point x="93" y="536"/>
      <point x="84" y="522"/>
      <point x="84" y="479" type="curve" smooth="yes"/>
      <point x="84" y="438" type="line" smooth="yes"/>
      <point x="84" y="395"/>
      <point x="93" y="381"/>
      <point x="108" y="381" type="curve" smooth="yes"/>
      <point x="161" y="381" type="line"/>
      <point x="121" y="-99" type="line" smooth="yes"/>
      <point x="119" y="-116"/>
      <point x="123" y="-134"/>
    </contour>
    <contour>
      <point x="303" y="536" type="line"/>
      <point x="325" y="807" type="line"/>
      <point x="446" y="807" type="line"/>
      <point x="425" y="536" type="line"/>
    </contour>
  </outline>
</glyph>
<glyph name="ampersand" format="1">
  <advance width="1264"/>
  <unicode hex="0026"/>
  <outline>
    <contour>
      <point x="487.283" y="-20.2991" type="curve" smooth="yes"/>
      <point x="668.528143036" y="-20.2991"/>
      <point x="735.131540713" y="77.4304941991"/>
      <point x="787.0" y="121.0" type="curve"/>
      <point x="842.0" y="18.0"/>
      <point x="983.0" y="-21.0"/>
      <point x="1062.0" y="-21.0" type="curve" smooth="yes"/>
      <point x="1114.0" y="-21.0"/>
      <point x="1162.0" y="-5.0"/>
      <point x="1202.0" y="18.0" type="curve" smooth="yes"/>
      <point x="1219.0" y="28.0"/>
      <point x="1231.0" y="66.0"/>
      <point x="1230.0" y="108.0" type="curve"/>
      <point x="1230.0" y="192.0" type="line" smooth="yes"/>
      <point x="1229.00437209" y="232.004092248"/>
      <point x="1217.01732218" y="257.997284519"/>
      <point x="1200.0" y="247.0" type="curve" smooth="yes"/>
      <point x="1172.0" y="229.0"/>
      <point x="1137.0" y="214.0"/>
      <point x="1104.0" y="214.0" type="curve" smooth="yes"/>
      <point x="1050.0" y="214.0"/>
      <point x="1005.0" y="255.0"/>
      <point x="1005.0" y="393.0" type="curve" smooth="yes"/>
      <point x="1005.0" y="608.0" type="line" smooth="yes"/>
      <point x="1005.0" y="628.0"/>
      <point x="1011.0" y="637.0"/>
      <point x="1019.0" y="637.0" type="curve" smooth="yes"/>
      <point x="1168.0" y="637.0" type="line" smooth="yes"/>
      <point x="1186.0" y="637.0"/>
      <point x="1199.0" y="670.0"/>
      <point x="1199.0" y="713.0" type="curve" smooth="yes"/>
      <point x="1199.0" y="777.0" type="line" smooth="yes"/>
      <point x="1199.0" y="820.0"/>
      <point x="1186.0" y="852.0"/>
      <point x="1168.0" y="852.0" type="curve" smooth="yes"/>
      <point x="1019.0" y="852.0" type="line" smooth="yes"/>
      <point x="1011.0" y="852.0"/>
      <point x="1005.0" y="862.0"/>
      <point x="1005.0" y="882.0" type="curve" smooth="yes"/>
      <point x="1005.0" y="1354.0" type="line" smooth="yes"/>
      <point x="1005.0" y="1397.0"/>
      <point x="991.0" y="1408.0"/>
      <point x="974.0" y="1408.0" type="curve" smooth="yes"/>
      <point x="785.0" y="1408.0" type="line" smooth="yes"/>
      <point x="767.0" y="1408.0"/>
      <point x="755.0" y="1397.0"/>
      <point x="754.0" y="1354.0" type="curve" smooth="yes"/>
      <point x="743.0" y="882.0" type="line" smooth="yes"/>
      <point x="743.0" y="862.0"/>
      <point x="736.0" y="852.0"/>
      <point x="728.0" y="852.0" type="curve" smooth="yes"/>
      <point x="489.0" y="852.0" type="line" smooth="yes"/>
      <point x="397.0" y="852.0"/>
      <point x="360.0" y="974.0"/>
      <point x="360.0" y="1059.0" type="curve" smooth="yes"/>
      <point x="361.0" y="1185.0"/>
      <point x="450.0" y="1225.0"/>
      <point x="509.0" y="1225.0" type="curve" smooth="yes"/>
      <point x="594.0" y="1225.0"/>
      <point x="601.0" y="1207.0"/>
      <point x="611.0" y="1204.0" type="curve" smooth="yes"/>
      <point x="628.333333333" y="1195.33333333"/>
      <point x="636.7" y="1204.7"/>
      <point x="638.0" y="1245.0" type="curve"/>
      <point x="647.0" y="1355.0" type="line" smooth="yes"/>
      <point x="655.5" y="1397.5"/>
      <point x="643.0" y="1413.66666667"/>
      <point x="626.0" y="1425.0" type="curve" smooth="yes"/>
      <point x="598.964" y="1441.41"/>
      <point x="548.365" y="1459.69"/>
      <point x="464.236" y="1459.69" type="curve" smooth="yes"/>
      <point x="236.671" y="1459.69"/>
      <point x="98.0" y="1315.8"/>
      <point x="98.0" y="1036.0" type="curve" smooth="yes"/>
      <point x="98.0" y="858.0"/>
      <point x="206.0" y="758.0"/>
      <point x="287.0" y="737.0" type="curve"/>
      <point x="197.941" y="710.175"/>
      <point x="99.7461" y="583.408"/>
      <point x="99.7461" y="395.409" type="curve" smooth="yes"/>
      <point x="99.7461" y="92.2308"/>
      <point x="268.7" y="-20.2991"/>
    </contour>
    <contour>
      <point x="532.0" y="194.0" type="curve" smooth="yes"/>
      <point x="451.0" y="194.0"/>
      <point x="362.0" y="255.0"/>
      <point x="362.0" y="407.0" type="curve" smooth="yes"/>
      <point x="362.0" y="501.0"/>
      <point x="407.0" y="636.0"/>
      <point x="499.0" y="637.0" type="curve" smooth="yes"/>
      <point x="572.998540363" y="637.0"/>
      <point x="654.999106602" y="637.999025911"/>
      <point x="728.0" y="637.0" type="curve" smooth="yes"/>
      <point x="736.0" y="637.0"/>
      <point x="743.0" y="629.0"/>
      <point x="743.0" y="609.0" type="curve" smooth="yes"/>
      <point x="743.0" y="609.0"/>
      <point x="745.0" y="343.0"/>
      <point x="747.0" y="307.0" type="curve"/>
      <point x="731.0" y="284.0"/>
      <point x="687.0" y="194.0"/>
    </contour>
  </outline>
</glyph>
<glyph name="hyphen" format="1">
  <advance width="616"/>
  <unicode hex="002D"/>
  <outline>
    <contour>
      <point x="127" y="526" type="curve" smooth="yes"/>
      <point x="486" y="526" type="line" smooth="yes"/>
      <point x="501" y="526"/>
      <point x="512" y="530"/>
      <point x="512" y="573" type="curve" smooth="yes"/>
      <point x="512" y="671" type="line" smooth="yes"/>
      <point x="512" y="714"/>
      <point x="501" y="718"/>
      <point x="486" y="718" type="curve" smooth="yes"/>
      <point x="127" y="718" type="line" smooth="yes"/>
      <point x="112" y="718"/>
      <point x="100" y="714"/>
      <point x="100" y="671" type="curve" smooth="yes"/>
      <point x="100" y="573" type="line" smooth="yes"/>
      <point x="100" y="530"/>
      <point x="112" y="526"/>
    </contour>
  </outline>
</glyph>
<glyph name="two" format="1">
  <advance width="702"/>
  <unicode hex="0032"/>
  <outline>
    <contour>
      <point x="606" y="1" type="line" smooth="yes"/>
      <point x="617" y="1"/>
      <point x="622" y="15"/>
      <point x="622" y="59" type="curve" smooth="yes"/>
      <point x="622" y="130" type="line" smooth="yes"/>
      <point x="622" y="176"/>
      <point x="616" y="193"/>
      <point x="607" y="193" type="curve" smooth="yes"/>
      <point x="323" y="193" type="line" smooth="yes"/>
      <point x="306.5" y="193.0"/>
      <point x="297.0" y="242.0"/>
      <point x="303" y="260" type="curve" smooth="yes"/>
      <point x="444.22078912" y="772.494799228"/>
      <point x="657" y="881"/>
      <point x="657" y="1160" type="curve" smooth="yes"/>
      <point x="657" y="1418"/>
      <point x="466" y="1456"/>
      <point x="319" y="1456" type="curve"/>
      <point x="245" y="1455"/>
      <point x="134" y="1426"/>
      <point x="97" y="1378" type="curve"/>
      <point x="90" y="1366"/>
      <point x="86" y="1346"/>
      <point x="86" y="1310" type="curve" smooth="yes"/>
      <point x="86" y="1306"/>
      <point x="90" y="1260"/>
      <point x="100" y="1194" type="curve"/>
      <point x="101" y="1165"/>
      <point x="110" y="1153"/>
      <point x="131" y="1174" type="curve" smooth="yes"/>
      <point x="138" y="1182"/>
      <point x="220" y="1237"/>
      <point x="311" y="1237" type="curve" smooth="yes"/>
      <point x="365" y="1237"/>
      <point x="438" y="1193"/>
      <point x="438" y="1110" type="curve" smooth="yes"/>
      <point x="438" y="920"/>
      <point x="118.092858778" y="682.550794137"/>
      <point x="69" y="150" type="curve" smooth="yes"/>
      <point x="68" y="139"/>
      <point x="67" y="100"/>
      <point x="67" y="90" type="curve" smooth="yes"/>
      <point x="67" y="35"/>
      <point x="78" y="1"/>
      <point x="96" y="1" type="curve" smooth="yes"/>
    </contour>
  </outline>
</glyph>
<glyph name="three" format="1">
  <advance width="639"/>
  <unicode hex="0033"/>
  <outline>
    <contour>
      <point x="264" y="-16" type="curve" smooth="yes"/>
      <point x="434" y="-16"/>
      <point x="601.0" y="79.0"/>
      <point x="601.0" y="356.0" type="curve" smooth="yes"/>
      <point x="601.0" y="560.0"/>
      <point x="528.0" y="691.0"/>
      <point x="399.0" y="726.0" type="curve"/>
      <point x="535.678" y="757.829"/>
      <point x="597.864" y="893.071"/>
      <point x="597.864" y="1060.35" type="curve" smooth="yes"/>
      <point x="597.864" y="1347.21"/>
      <point x="460" y="1456"/>
      <point x="281" y="1456" type="curve" smooth="yes"/>
      <point x="141" y="1456"/>
      <point x="92" y="1429"/>
      <point x="62" y="1407" type="curve" smooth="yes"/>
      <point x="52" y="1399"/>
      <point x="47" y="1339"/>
      <point x="47" y="1339" type="curve" smooth="yes"/>
      <point x="52" y="1240" type="line" smooth="yes"/>
      <point x="53" y="1200"/>
      <point x="59" y="1190"/>
      <point x="72" y="1199" type="curve" smooth="yes"/>
      <point x="83" y="1206"/>
      <point x="139" y="1240"/>
      <point x="241" y="1240" type="curve" smooth="yes"/>
      <point x="323" y="1240"/>
      <point x="372.254" y="1193.88"/>
      <point x="372.254" y="1049.18" type="curve" smooth="yes"/>
      <point x="372.254" y="937.799"/>
      <point x="328.723" y="836.0"/>
      <point x="232.0" y="836.0" type="curve" smooth="yes"/>
      <point x="196.0" y="836.0" type="line" smooth="yes"/>
      <point x="167.0" y="836.0"/>
      <point x="161.0" y="828.0"/>
      <point x="161.0" y="814.0" type="curve" smooth="yes"/>
      <point x="161.0" y="663.0" type="line" smooth="yes"/>
      <point x="161.0" y="629.0"/>
      <point x="166.0" y="621.0"/>
      <point x="196.0" y="621.0" type="curve" smooth="yes"/>
      <point x="232.0" y="621.0" type="line" smooth="yes"/>
      <point x="330.0" y="621.0"/>
      <point x="377.0" y="501.0"/>
      <point x="377.0" y="401.0" type="curve" smooth="yes"/>
      <point x="377.0" y="291.0"/>
      <point x="330" y="197"/>
      <point x="225" y="197" type="curve" smooth="yes"/>
      <point x="131" y="197"/>
      <point x="81" y="239"/>
      <point x="69" y="246" type="curve" smooth="yes"/>
      <point x="53" y="262"/>
      <point x="52" y="240"/>
      <point x="50" y="207" type="curve"/>
      <point x="47" y="106" type="line" smooth="yes"/>
      <point x="47" y="106"/>
      <point x="52" y="47"/>
      <point x="62" y="37" type="curve" smooth="yes"/>
      <point x="93" y="4"/>
      <point x="152" y="-16"/>
    </contour>
  </outline>
</glyph>
<glyph name="five" format="1">
  <advance width="810"/>
  <unicode hex="0035"/>
  <outline>
    <contour>
      <point x="383" y="-16" type="curve"/>
      <point x="587" y="-16"/>
      <point x="730" y="79"/>
      <point x="730" y="463" type="curve" smooth="yes"/>
      <point x="730" y="759"/>
      <point x="639" y="943"/>
      <point x="466" y="943" type="curve" smooth="yes"/>
      <point x="346" y="943"/>
      <point x="295" y="883"/>
      <point x="273" y="843" type="curve"/>
      <point x="273" y="843"/>
      <point x="268.924" y="1157.96"/>
      <point x="268.924" y="1160.31" type="curve" smooth="yes"/>
      <point x="268.924" y="1204.48"/>
      <point x="277.758" y="1218"/>
      <point x="292" y="1218" type="curve" smooth="yes"/>
      <point x="661" y="1218" type="line" smooth="yes"/>
      <point x="669" y="1218"/>
      <point x="674" y="1231"/>
      <point x="676" y="1261" type="curve" smooth="yes"/>
      <point x="676" y="1261"/>
      <point x="680.0" y="1381.0"/>
      <point x="680" y="1381" type="curve" smooth="yes"/>
      <point x="680" y="1410"/>
      <point x="675" y="1438"/>
      <point x="663" y="1438" type="curve" smooth="yes"/>
      <point x="132" y="1438" type="line" smooth="yes"/>
      <point x="108" y="1438"/>
      <point x="101" y="1394"/>
      <point x="101" y="1320" type="curve"/>
      <point x="123" y="692" type="line" smooth="yes"/>
      <point x="124" y="652"/>
      <point x="123" y="612"/>
      <point x="146" y="612" type="curve" smooth="yes"/>
      <point x="208" y="612" type="line" smooth="yes"/>
      <point x="259" y="612"/>
      <point x="221" y="749"/>
      <point x="354" y="749" type="curve" smooth="yes"/>
      <point x="489.906" y="749"/>
      <point x="497.101" y="586.712"/>
      <point x="497.101" y="484.44" type="curve" smooth="yes"/>
      <point x="497.101" y="282.080858137"/>
      <point x="480" y="200"/>
      <point x="332" y="200" type="curve" smooth="yes"/>
      <point x="220" y="200"/>
      <point x="151" y="259"/>
      <point x="137" y="266" type="curve" smooth="yes"/>
      <point x="134" y="268"/>
      <point x="132" y="269"/>
      <point x="130" y="269" type="curve" smooth="yes"/>
      <point x="109" y="269"/>
      <point x="110" y="119"/>
      <point x="110" y="119" type="curve" smooth="yes"/>
      <point x="110" y="89"/>
      <point x="115" y="73"/>
      <point x="128" y="63" type="curve" smooth="yes"/>
      <point x="166" y="30"/>
      <point x="302" y="-15"/>
    </contour>
  </outline>
</glyph>
<glyph name="six" format="1">
  <advance width="882"/>
  <unicode hex="0036"/>
  <outline>
    <contour>
      <point x="471" y="-16" type="curve" smooth="yes"/>
      <point x="678" y="-16"/>
      <point x="827" y="58"/>
      <point x="827" y="449" type="curve" smooth="yes"/>
      <point x="827" y="730"/>
      <point x="726" y="936"/>
      <point x="502" y="936" type="curve" smooth="yes"/>
      <point x="456" y="936"/>
      <point x="417" y="911"/>
      <point x="374" y="892" type="curve"/>
      <point x="374" y="908" type="line" smooth="yes"/>
      <point x="374.0" y="1184.37101845"/>
      <point x="466" y="1236"/>
      <point x="575" y="1236" type="curve" smooth="yes"/>
      <point x="656" y="1236"/>
      <point x="724" y="1194"/>
      <point x="733" y="1188" type="curve" smooth="yes"/>
      <point x="750" y="1177"/>
      <point x="755" y="1191"/>
      <point x="757" y="1229" type="curve" smooth="yes"/>
      <point x="765" y="1334" type="line" smooth="yes"/>
      <point x="765" y="1334"/>
      <point x="760" y="1388"/>
      <point x="747" y="1398" type="curve" smooth="yes"/>
      <point x="712" y="1428"/>
      <point x="596" y="1456"/>
      <point x="513" y="1456" type="curve" smooth="yes"/>
      <point x="214" y="1456"/>
      <point x="111.0" y="1211.41741803"/>
      <point x="111" y="660" type="curve" smooth="yes"/>
      <point x="111" y="130"/>
      <point x="261" y="-16"/>
    </contour>
    <contour>
      <point x="477" y="199" type="curve" smooth="yes"/>
      <point x="417" y="199"/>
      <point x="374" y="251"/>
      <point x="374" y="506" type="curve" smooth="yes"/>
      <point x="374" y="677" type="line"/>
      <point x="414" y="703"/>
      <point x="452" y="718"/>
      <point x="485" y="718" type="curve" smooth="yes"/>
      <point x="553" y="718"/>
      <point x="571" y="614"/>
      <point x="571" y="469" type="curve" smooth="yes"/>
      <point x="571" y="242"/>
      <point x="535" y="199"/>
    </contour>
  </outline>
</glyph>
<glyph name="seven" format="1">
  <advance width="681"/>
  <unicode hex="0037"/>
  <outline>
    <contour>
      <point x="226" y="0" type="curve" smooth="yes"/>
      <point x="426" y="0" type="line" smooth="yes"/>
      <point x="440" y="0"/>
      <point x="451" y="35"/>
      <point x="455" y="77" type="curve" smooth="yes"/>
      <point x="573" y="1361" type="line" smooth="yes"/>
      <point x="576.005871212" y="1403.08219697"/>
      <point x="562.997757626" y="1438.0"/>
      <point x="549" y="1438" type="curve" smooth="yes"/>
      <point x="129" y="1438" type="line" smooth="yes"/>
      <point x="114" y="1438"/>
      <point x="102" y="1424"/>
      <point x="102" y="1381" type="curve" smooth="yes"/>
      <point x="102" y="1218" type="line" smooth="yes"/>
      <point x="102" y="1175"/>
      <point x="114" y="1161"/>
      <point x="129" y="1161" type="curve" smooth="yes"/>
      <point x="285" y="1161" type="line" smooth="yes"/>
      <point x="292" y="1161"/>
      <point x="298" y="1144"/>
      <point x="296" y="1124" type="curve" smooth="yes"/>
      <point x="202" y="77" type="line" smooth="yes"/>
      <point x="197.999505144" y="35.0004271957"/>
      <point x="210.999692761" y="4.05784980824e-15"/>
    </contour>
  </outline>
</glyph>
<glyph name="eight" format="1">
  <advance width="879"/>
  <unicode hex="0038"/>
  <outline>
    <contour>
      <point x="533" y="877" type="curve" smooth="yes"/>
      <point x="401.991104358" y="860.997851302"/>
      <point x="336.0" y="923.00116407"/>
      <point x="336" y="1093" type="curve" smooth="yes"/>
      <point x="336" y="1230"/>
      <point x="391" y="1254"/>
      <point x="441" y="1254" type="curve" smooth="yes"/>
      <point x="491" y="1254"/>
      <point x="548" y="1211"/>
      <point x="548" y="1074" type="curve" smooth="yes"/>
      <point x="548" y="1009"/>
      <point x="546" y="878"/>
    </contour>
    <contour>
      <point x="442" y="-16" type="curve" smooth="yes"/>
      <point x="600" y="-16"/>
      <point x="766" y="55"/>
      <point x="766" y="446" type="curve" smooth="yes"/>
      <point x="766" y="639"/>
      <point x="736" y="735"/>
      <point x="672" y="805" type="curve"/>
      <point x="712" y="846"/>
      <point x="736" y="959"/>
      <point x="736" y="1083" type="curve" smooth="yes"/>
      <point x="736" y="1407"/>
      <point x="578" y="1456"/>
      <point x="441" y="1456" type="curve" smooth="yes"/>
      <point x="304" y="1456"/>
      <point x="143" y="1404"/>
      <point x="143" y="1073" type="curve" smooth="yes"/>
      <point x="143" y="948"/>
      <point x="173" y="856"/>
      <point x="216" y="805" type="curve"/>
      <point x="157" y="762"/>
      <point x="113" y="638"/>
      <point x="113" y="446" type="curve" smooth="yes"/>
      <point x="113" y="21"/>
      <point x="283" y="-16"/>
    </contour>
    <contour>
      <point x="442" y="242" type="curve" smooth="yes"/>
      <point x="382" y="242"/>
      <point x="325" y="299"/>
      <point x="325" y="486" type="curve" smooth="yes"/>
      <point x="325" y="570"/>
      <point x="330" y="669"/>
      <point x="340" y="708" type="curve"/>
      <point x="406" y="658"/>
      <point x="551" y="725"/>
      <point x="551" y="466" type="curve" smooth="yes"/>
      <point x="551" y="279"/>
      <point x="500" y="242"/>
    </contour>
  </outline>
</glyph>
<glyph name="semicolon" format="1">
  <advance width="374"/>
  <unicode hex="003B"/>
  <outline>
    <contour>
      <point x="131" y="-342" type="curve" smooth="yes"/>
      <point x="179" y="-319"/>
      <point x="300" y="-212"/>
      <point x="300" y="25" type="curve" smooth="yes"/>
      <point x="300" y="246" type="line" smooth="yes"/>
      <point x="300" y="289"/>
      <point x="288" y="303"/>
      <point x="274" y="303" type="curve" smooth="yes"/>
      <point x="126" y="303" type="line" smooth="yes"/>
      <point x="111" y="303"/>
      <point x="105" y="289"/>
      <point x="105" y="246" type="curve" smooth="yes"/>
      <point x="105" y="60" type="line" smooth="yes"/>
      <point x="105" y="22"/>
      <point x="112" y="0"/>
      <point x="126" y="0" type="curve" smooth="yes"/>
      <point x="177" y="0" type="line" smooth="yes"/>
      <point x="182" y="0"/>
      <point x="183" y="-11"/>
      <point x="183" y="-27" type="curve" smooth="yes"/>
      <point x="183" y="-91"/>
      <point x="164" y="-166"/>
      <point x="129" y="-201" type="curve" smooth="yes"/>
      <point x="107" y="-223"/>
      <point x="105" y="-222"/>
      <point x="105" y="-276" type="curve" smooth="yes"/>
      <point x="105" y="-297" type="line" smooth="yes"/>
      <point x="105.0" y="-333.002283468"/>
      <point x="119.006897143" y="-347.996551429"/>
    </contour>
    <contour>
      <point x="131" y="656" type="curve" smooth="yes"/>
      <point x="267" y="656" type="line" smooth="yes"/>
      <point x="282" y="656"/>
      <point x="294" y="670"/>
      <point x="294" y="713" type="curve" smooth="yes"/>
      <point x="294" y="949" type="line" smooth="yes"/>
      <point x="294" y="992"/>
      <point x="282" y="1006"/>
      <point x="267" y="1006" type="curve" smooth="yes"/>
      <point x="131" y="1006" type="line" smooth="yes"/>
      <point x="116" y="1006"/>
      <point x="104" y="992"/>
      <point x="104" y="949" type="curve" smooth="yes"/>
      <point x="104" y="713" type="line" smooth="yes"/>
      <point x="104" y="670"/>
      <point x="116" y="656"/>
    </contour>
  </outline>
</glyph>
<glyph name="equal" format="1">
  <advance width="631"/>
  <unicode hex="003D"/>
  <outline>
    <contour>
      <point x="75" y="323" type="curve" smooth="yes"/>
      <point x="557" y="323" type="line" smooth="yes"/>
      <point x="571" y="323"/>
      <point x="583" y="327"/>
      <point x="583" y="370" type="curve" smooth="yes"/>
      <point x="583" y="431" type="line" smooth="yes"/>
      <point x="583" y="474"/>
      <point x="571" y="478"/>
      <point x="557" y="478" type="curve" smooth="yes"/>
      <point x="75" y="478" type="line" smooth="yes"/>
      <point x="60" y="478"/>
      <point x="48" y="474"/>
      <point x="48" y="431" type="curve" smooth="yes"/>
      <point x="48" y="370" type="line" smooth="yes"/>
      <point x="48" y="327"/>
      <point x="60" y="323"/>
    </contour>
    <contour>
      <point x="75" y="610" type="curve" smooth="yes"/>
      <point x="557" y="610" type="line" smooth="yes"/>
      <point x="571" y="610"/>
      <point x="583" y="614"/>
      <point x="583" y="657" type="curve" smooth="yes"/>
      <point x="583" y="718" type="line" smooth="yes"/>
      <point x="583" y="761"/>
      <point x="571" y="765"/>
      <point x="557" y="765" type="curve" smooth="yes"/>
      <point x="75" y="765" type="line" smooth="yes"/>
      <point x="60" y="765"/>
      <point x="48" y="761"/>
      <point x="48" y="718" type="curve" smooth="yes"/>
      <point x="48" y="657" type="line" smooth="yes"/>
      <point x="48" y="614"/>
      <point x="60" y="610"/>
    </contour>
  </outline>
</glyph>
<glyph name="greater" format="1">
  <advance width="1384"/>
  <unicode hex="003E"/>
  <outline>
    <contour>
      <point x="242" y="169" type="curve" smooth="yes"/>
      <point x="252" y="169"/>
      <point x="263" y="173"/>
      <point x="274" y="179" type="curve"/>
      <point x="571" y="477" type="line" smooth="yes"/>
      <point x="611" y="517"/>
      <point x="644" y="548"/>
      <point x="644" y="598" type="curve" smooth="yes"/>
      <point x="644" y="670" type="line" smooth="yes"/>
      <point x="644" y="720"/>
      <point x="611" y="748"/>
      <point x="572" y="788" type="curve" smooth="yes"/>
      <point x="274" y="1097" type="line"/>
      <point x="262" y="1103"/>
      <point x="251" y="1107"/>
      <point x="242" y="1107" type="curve" smooth="yes"/>
      <point x="215" y="1107"/>
      <point x="196" y="1085"/>
      <point x="196" y="1063" type="curve" smooth="yes"/>
      <point x="196" y="981" type="line" smooth="yes"/>
      <point x="196" y="932"/>
      <point x="221" y="915"/>
      <point x="257" y="879" type="curve"/>
      <point x="473" y="653" type="line" smooth="yes"/>
      <point x="480" y="646"/>
      <point x="484" y="639"/>
      <point x="484" y="632" type="curve" smooth="yes"/>
      <point x="484" y="626"/>
      <point x="481" y="619"/>
      <point x="473" y="611" type="curve" smooth="yes"/>
      <point x="257" y="392" type="line" smooth="yes"/>
      <point x="221" y="356"/>
      <point x="196" y="340"/>
      <point x="196" y="291" type="curve" smooth="yes"/>
      <point x="196" y="213" type="line" smooth="yes"/>
      <point x="196" y="191"/>
      <point x="215" y="169"/>
    </contour>
  </outline>
</glyph>
<glyph name="question" format="1">
  <advance width="802"/>
  <unicode hex="003F"/>
  <outline>
    <contour>
      <point x="287" y="550" type="curve" smooth="yes"/>
      <point x="301.666666667" y="518.222222222"/>
      <point x="332.538461538" y="540.846153846"/>
      <point x="341" y="551" type="curve" smooth="yes"/>
      <point x="363" y="575"/>
      <point x="415" y="624"/>
      <point x="467" y="660" type="curve" smooth="yes"/>
      <point x="562" y="726"/>
      <point x="729" y="835"/>
      <point x="729" y="1059" type="curve"/>
      <point x="717" y="1410"/>
      <point x="527" y="1475"/>
      <point x="380" y="1475" type="curve" smooth="yes"/>
      <point x="279" y="1475"/>
      <point x="163" y="1426"/>
      <point x="108" y="1378" type="curve" smooth="yes"/>
      <point x="97" y="1368"/>
      <point x="88" y="1346"/>
      <point x="88" y="1322" type="curve" smooth="yes"/>
      <point x="88" y="1314"/>
      <point x="110" y="1213"/>
      <point x="110" y="1213" type="curve" smooth="yes"/>
      <point x="119" y="1174"/>
      <point x="129" y="1152"/>
      <point x="149" y="1167" type="curve" smooth="yes"/>
      <point x="213" y="1216"/>
      <point x="280" y="1246"/>
      <point x="377" y="1246" type="curve" smooth="yes"/>
      <point x="437" y="1246"/>
      <point x="514" y="1204"/>
      <point x="520" y="1056" type="curve"/>
      <point x="520" y="962"/>
      <point x="485" y="896"/>
      <point x="429" y="855" type="curve" smooth="yes"/>
      <point x="346" y="795"/>
      <point x="310" y="764"/>
      <point x="265" y="709" type="curve" smooth="yes"/>
      <point x="254" y="695"/>
      <point x="249" y="678"/>
      <point x="249" y="659" type="curve" smooth="yes"/>
      <point x="249" y="614"/>
      <point x="268" y="589"/>
    </contour>
    <contour>
      <point x="277" y="0" type="curve" smooth="yes"/>
      <point x="421" y="0" type="line" smooth="yes"/>
      <point x="456" y="0"/>
      <point x="481" y="31"/>
      <point x="481" y="74" type="curve" smooth="yes"/>
      <point x="481" y="228" type="line" smooth="yes"/>
      <point x="481" y="271"/>
      <point x="456" y="302"/>
      <point x="421" y="302" type="curve" smooth="yes"/>
      <point x="277" y="302" type="line" smooth="yes"/>
      <point x="242" y="302"/>
      <point x="217" y="271"/>
      <point x="217" y="228" type="curve" smooth="yes"/>
      <point x="217" y="74" type="line" smooth="yes"/>
      <point x="217" y="31"/>
      <point x="242" y="0"/>
    </contour>
  </outline>
</glyph>
<glyph name="C" format="1">
  <advance width="747"/>
  <unicode hex="0043"/>
  <outline>
    <contour>
      <point x="527" y="-16" type="curve" smooth="yes"/>
      <point x="591" y="-16"/>
      <point x="653" y="-6"/>
      <point x="690" y="9" type="curve"/>
      <point x="699" y="37" type="line"/>
      <point x="699" y="187" type="line"/>
      <point x="690" y="215" type="line"/>
      <point x="654" y="203"/>
      <point x="625" y="197"/>
      <point x="567" y="197" type="curve" smooth="yes"/>
      <point x="426" y="197"/>
      <point x="348" y="253"/>
      <point x="348" y="719" type="curve" smooth="yes"/>
      <point x="348" y="1180"/>
      <point x="441" y="1240"/>
      <point x="577" y="1240" type="curve" smooth="yes"/>
      <point x="637" y="1240"/>
      <point x="689" y="1223"/>
      <point x="693" y="1223" type="curve" smooth="yes"/>
      <point x="697" y="1223"/>
      <point x="700" y="1224"/>
      <point x="700" y="1239" type="curve" smooth="yes"/>
      <point x="700" y="1404" type="line" smooth="yes"/>
      <point x="700" y="1421"/>
      <point x="693" y="1420"/>
      <point x="690" y="1425" type="curve"/>
      <point x="653" y="1443"/>
      <point x="581" y="1456"/>
      <point x="529" y="1456" type="curve" smooth="yes"/>
      <point x="294" y="1456"/>
      <point x="86" y="1381"/>
      <point x="86" y="719" type="curve" smooth="yes"/>
      <point x="86" y="56"/>
      <point x="282" y="-16"/>
    </contour>
    <contour>
      <point x="374" y="1438" type="move" name="top"/>
    </contour>
    <contour>
      <point x="374" y="0" type="move" name="bottom"/>
    </contour>
  </outline>
</glyph>
<glyph name="F" format="1">
  <advance width="723"/>
  <unicode hex="0046"/>
  <outline>
    <contour>
      <point x="149" y="0" type="curve" smooth="yes"/>
      <point x="358" y="0" type="line" smooth="yes"/>
      <point x="372" y="0"/>
      <point x="384" y="4"/>
      <point x="384" y="47" type="curve" smooth="yes"/>
      <point x="384" y="543" type="line" smooth="yes"/>
      <point x="384" y="563"/>
      <point x="390" y="573"/>
      <point x="397" y="573" type="curve" smooth="yes"/>
      <point x="609" y="573" type="line" smooth="yes"/>
      <point x="624" y="573"/>
      <point x="635" y="577"/>
      <point x="635" y="620" type="curve" smooth="yes"/>
      <point x="635" y="754" type="line" smooth="yes"/>
      <point x="635" y="797"/>
      <point x="624" y="801"/>
      <point x="609" y="801" type="curve" smooth="yes"/>
      <point x="397" y="801" type="line" smooth="yes"/>
      <point x="390" y="801"/>
      <point x="384" y="808"/>
      <point x="384" y="828" type="curve" smooth="yes"/>
      <point x="384" y="1199" type="line" smooth="yes"/>
      <point x="384" y="1219"/>
      <point x="390" y="1226"/>
      <point x="397" y="1226" type="curve" smooth="yes"/>
      <point x="676" y="1226" type="line" smooth="yes"/>
      <point x="691" y="1226"/>
      <point x="703" y="1230"/>
      <point x="703" y="1273" type="curve" smooth="yes"/>
      <point x="703" y="1391" type="line" smooth="yes"/>
      <point x="703" y="1434"/>
      <point x="691" y="1438"/>
      <point x="676" y="1438" type="curve" smooth="yes"/>
      <point x="149" y="1438" type="line" smooth="yes"/>
      <point x="134" y="1438"/>
      <point x="122" y="1433"/>
      <point x="122" y="1390" type="curve" smooth="yes"/>
      <point x="122" y="47" type="line" smooth="yes"/>
      <point x="122" y="4"/>
      <point x="134" y="0"/>
    </contour>
  </outline>
</glyph>
<glyph name="G" format="1">
  <advance width="938"/>
  <unicode hex="0047"/>
  <outline>
    <contour>
      <point x="826" y="-17" type="curve" smooth="yes"/>
      <point x="840" y="-17"/>
      <point x="862" y="17"/>
      <point x="862" y="60" type="curve" smooth="yes"/>
      <point x="862" y="703" type="line" smooth="yes"/>
      <point x="862" y="746"/>
      <point x="850" y="780"/>
      <point x="836" y="780" type="curve" smooth="yes"/>
      <point x="565" y="780" type="line" smooth="yes"/>
      <point x="550" y="780"/>
      <point x="538" y="772"/>
      <point x="538" y="729" type="curve" smooth="yes"/>
      <point x="538" y="609" type="line" smooth="yes"/>
      <point x="538" y="566"/>
      <point x="550" y="560"/>
      <point x="565" y="560" type="curve" smooth="yes"/>
      <point x="630" y="560" type="line" smooth="yes"/>
      <point x="635" y="560"/>
      <point x="639" y="547"/>
      <point x="639" y="534" type="curve" smooth="yes"/>
      <point x="639" y="303.355"/>
      <point x="627.847" y="193.591"/>
      <point x="526.416" y="193.591" type="curve" smooth="yes"/>
      <point x="417.551" y="193.591"/>
      <point x="355" y="307.386"/>
      <point x="355" y="719" type="curve" smooth="yes"/>
      <point x="355" y="1160.84"/>
      <point x="453" y="1240"/>
      <point x="611" y="1240" type="curve" smooth="yes"/>
      <point x="671" y="1240"/>
      <point x="777" y="1210"/>
      <point x="781" y="1210" type="curve" smooth="yes"/>
      <point x="785" y="1210"/>
      <point x="788" y="1211"/>
      <point x="788" y="1226" type="curve" smooth="yes"/>
      <point x="788" y="1394" type="line" smooth="yes"/>
      <point x="788" y="1411"/>
      <point x="781" y="1410"/>
      <point x="778" y="1415" type="curve"/>
      <point x="741" y="1433"/>
      <point x="652" y="1456"/>
      <point x="600" y="1456" type="curve" smooth="yes"/>
      <point x="345" y="1456"/>
      <point x="93" y="1391"/>
      <point x="93" y="719" type="curve" smooth="yes"/>
      <point x="93" y="66"/>
      <point x="296" y="-16"/>
      <point x="495" y="-16" type="curve" smooth="yes"/>
      <point x="626" y="-16"/>
      <point x="696" y="58"/>
      <point x="715" y="206" type="curve"/>
      <point x="717" y="213"/>
      <point x="719" y="216"/>
      <point x="721" y="216" type="curve" smooth="yes"/>
      <point x="723" y="216"/>
      <point x="726" y="212"/>
      <point x="726" y="204" type="curve"/>
      <point x="763" y="53" type="line" smooth="yes"/>
      <point x="777" y="-5"/>
      <point x="810" y="-17"/>
    </contour>
    <contour>
      <point x="469" y="1438" type="move" name="top"/>
    </contour>
    <contour>
      <point x="469" y="0" type="move" name="bottom"/>
    </contour>
  </outline>
</glyph>
<glyph name="J" format="1">
  <advance width="583"/>
  <unicode hex="004A"/>
  <outline>
    <contour>
      <point x="87" y="-162" type="curve" smooth="yes"/>
      <point x="263" y="-162"/>
      <point x="461" y="-139"/>
      <point x="461" y="434" type="curve" smooth="yes"/>
      <point x="461" y="1401" type="line" smooth="yes"/>
      <point x="461" y="1421"/>
      <point x="454" y="1438"/>
      <point x="448" y="1438" type="curve" smooth="yes"/>
      <point x="211" y="1438" type="line" smooth="yes"/>
      <point x="204" y="1438"/>
      <point x="199" y="1421"/>
      <point x="199" y="1401" type="curve" smooth="yes"/>
      <point x="199" y="514" type="line" smooth="yes"/>
      <point x="199" y="114"/>
      <point x="156" y="109"/>
      <point x="88" y="100" type="curve" smooth="yes"/>
      <point x="80" y="99"/>
      <point x="74" y="82"/>
      <point x="74" y="61" type="curve" smooth="yes"/>
      <point x="74" y="-127" type="line" smooth="yes"/>
      <point x="74" y="-147"/>
      <point x="80" y="-162"/>
    </contour>
    <contour>
      <point x="292" y="1438" type="move" name="top"/>
    </contour>
  </outline>
</glyph>
<glyph name="L" format="1">
  <advance width="712"/>
  <unicode hex="004C"/>
  <outline>
    <contour>
      <point x="149" y="0" type="curve" smooth="yes"/>
      <point x="654" y="0" type="line" smooth="yes"/>
      <point x="669" y="0"/>
      <point x="681" y="4"/>
      <point x="681" y="47" type="curve" smooth="yes"/>
      <point x="681" y="165" type="line" smooth="yes"/>
      <point x="681" y="208"/>
      <point x="669" y="212"/>
      <point x="654" y="212" type="curve" smooth="yes"/>
      <point x="397" y="212" type="line" smooth="yes"/>
      <point x="390" y="212"/>
      <point x="384" y="216"/>
      <point x="384" y="236" type="curve" smooth="yes"/>
      <point x="384" y="1391" type="line" smooth="yes"/>
      <point x="384" y="1434"/>
      <point x="372" y="1438"/>
      <point x="358" y="1438" type="curve" smooth="yes"/>
      <point x="149" y="1438" type="line" smooth="yes"/>
      <point x="134" y="1438"/>
      <point x="122" y="1434"/>
      <point x="122" y="1391" type="curve" smooth="yes"/>
      <point x="122" y="47" type="line" smooth="yes"/>
      <point x="122" y="4"/>
      <point x="134" y="0"/>
    </contour>
    <contour>
      <point x="356" y="1438" type="move" name="top"/>
    </contour>
    <contour>
      <point x="356" y="0" type="move" name="bottom"/>
    </contour>
  </outline>
</glyph>
<glyph name="P" format="1">
  <advance width="920"/>
  <unicode hex="0050"/>
  <outline>
    <contour>
      <point x="149" y="0" type="curve" smooth="yes"/>
      <point x="357" y="0" type="line" smooth="yes"/>
      <point x="372" y="0"/>
      <point x="384" y="14"/>
      <point x="384" y="57" type="curve" smooth="yes"/>
      <point x="384" y="447" type="line" smooth="yes"/>
      <point x="384" y="467"/>
      <point x="390" y="469"/>
      <point x="396" y="469" type="curve" smooth="yes"/>
      <point x="521" y="469" type="line" smooth="yes"/>
      <point x="690" y="469"/>
      <point x="862" y="537"/>
      <point x="862" y="950" type="curve" smooth="yes"/>
      <point x="862" y="1390"/>
      <point x="676" y="1438"/>
      <point x="490" y="1438" type="curve" smooth="yes"/>
      <point x="149" y="1438" type="line" smooth="yes"/>
      <point x="134" y="1438"/>
      <point x="122" y="1432"/>
      <point x="122" y="1390" type="curve" smooth="yes"/>
      <point x="122" y="57" type="line" smooth="yes"/>
      <point x="122" y="14"/>
      <point x="134" y="0"/>
    </contour>
    <contour>
      <point x="396" y="682" type="line" smooth="yes"/>
      <point x="390" y="682"/>
      <point x="384" y="685"/>
      <point x="384" y="705" type="curve" smooth="yes"/>
      <point x="384" y="1199" type="line" smooth="yes"/>
      <point x="384" y="1219"/>
      <point x="390" y="1226"/>
      <point x="396" y="1226" type="curve" smooth="yes"/>
      <point x="474" y="1226" type="line" smooth="yes"/>
      <point x="553" y="1226"/>
      <point x="600" y="1201"/>
      <point x="600" y="948" type="curve" smooth="yes"/>
      <point x="600" y="729"/>
      <point x="592" y="682"/>
      <point x="486" y="682" type="curve" smooth="yes"/>
    </contour>
  </outline>
</glyph>
<glyph name="Q" format="1">
  <advance width="966"/>
  <unicode hex="0051"/>
  <outline>
    <contour>
      <point x="552.608" y="-431.156" type="curve" smooth="yes"/>
      <point x="558.26" y="-431.156"/>
      <point x="668" y="-403"/>
      <point x="668" y="-403" type="curve"/>
      <point x="682.823" y="-397.844"/>
      <point x="688.093" y="-381.475"/>
      <point x="688.093" y="-360.315" type="curve" smooth="yes"/>
      <point x="688.093" y="-320.457"/>
      <point x="644.66" y="-111.376"/>
      <point x="625" y="-4" type="curve"/>
      <point x="799" y="47"/>
      <point x="880" y="214"/>
      <point x="880" y="721" type="curve" smooth="yes"/>
      <point x="880" y="1343"/>
      <point x="745" y="1456"/>
      <point x="483" y="1456" type="curve" smooth="yes"/>
      <point x="222" y="1456"/>
      <point x="86" y="1343"/>
      <point x="86" y="721" type="curve" smooth="yes"/>
      <point x="86" y="149.793"/>
      <point x="189" y="6"/>
      <point x="412" y="-18" type="curve" smooth="yes"/>
      <point x="420" y="-19"/>
      <point x="429" y="-19"/>
      <point x="437" y="-20" type="curve"/>
      <point x="505" y="-368" type="line" smooth="yes"/>
      <point x="514.941" y="-417.706"/>
      <point x="534.239" y="-431.156"/>
    </contour>
    <contour>
      <point x="482" y="193" type="curve" smooth="yes"/>
      <point x="376" y="193"/>
      <point x="348" y="298"/>
      <point x="348" y="721" type="curve" smooth="yes"/>
      <point x="348" y="1144"/>
      <point x="374" y="1240"/>
      <point x="484" y="1240" type="curve" smooth="yes"/>
      <point x="595" y="1240"/>
      <point x="618" y="1144"/>
      <point x="618" y="721" type="curve" smooth="yes"/>
      <point x="618" y="298"/>
      <point x="589" y="193"/>
    </contour>
  </outline>
</glyph>
<glyph name="U" format="1">
  <advance width="980"/>
  <unicode hex="0055"/>
  <outline>
    <contour>
      <point x="490" y="-16" type="curve" smooth="yes"/>
      <point x="705" y="-16"/>
      <point x="879" y="26"/>
      <point x="879" y="569" type="curve" smooth="yes"/>
      <point x="879" y="1391" type="line" smooth="yes"/>
      <point x="879" y="1434"/>
      <point x="868" y="1438"/>
      <point x="853" y="1438" type="curve" smooth="yes"/>
      <point x="643" y="1438" type="line" smooth="yes"/>
      <point x="629" y="1438"/>
      <point x="617" y="1434"/>
      <point x="617" y="1391" type="curve" smooth="yes"/>
      <point x="617" y="579" type="line" smooth="yes"/>
      <point x="617" y="225"/>
      <point x="585" y="196"/>
      <point x="489" y="196" type="curve" smooth="yes"/>
      <point x="393" y="196"/>
      <point x="363" y="240"/>
      <point x="363" y="579" type="curve" smooth="yes"/>
      <point x="363" y="1391" type="line" smooth="yes"/>
      <point x="363" y="1434"/>
      <point x="351" y="1438"/>
      <point x="337" y="1438" type="curve" smooth="yes"/>
      <point x="128" y="1438" type="line" smooth="yes"/>
      <point x="113" y="1438"/>
      <point x="101" y="1434"/>
      <point x="101" y="1391" type="curve" smooth="yes"/>
      <point x="101" y="569" type="line" smooth="yes"/>
      <point x="101" y="37"/>
      <point x="262" y="-16"/>
    </contour>
    <contour>
      <point x="490" y="1438" type="move" name="top"/>
    </contour>
    <contour>
      <point x="882" y="10" type="move" name="ogonek"/>
    </contour>
  </outline>
</glyph>
<glyph name="Z" format="1">
  <advance width="770"/>
  <unicode hex="005A"/>
  <outline>
    <contour>
      <point x="110" y="0" type="curve" smooth="yes"/>
      <point x="692" y="0" type="line" smooth="yes"/>
      <point x="707" y="0"/>
      <point x="719" y="4"/>
      <point x="719" y="47" type="curve" smooth="yes"/>
      <point x="719" y="175" type="line" smooth="yes"/>
      <point x="719" y="218"/>
      <point x="707" y="212"/>
      <point x="692" y="212" type="curve" smooth="yes"/>
      <point x="395" y="212" type="line" smooth="yes"/>
      <point x="392" y="212"/>
      <point x="390" y="219"/>
      <point x="390" y="226" type="curve" smooth="yes"/>
      <point x="390" y="230"/>
      <point x="390" y="233"/>
      <point x="391" y="236" type="curve" smooth="yes"/>
      <point x="684" y="1210" type="line" smooth="yes"/>
      <point x="693" y="1242"/>
      <point x="704" y="1277"/>
      <point x="704" y="1324" type="curve" smooth="yes"/>
      <point x="704" y="1391" type="line" smooth="yes"/>
      <point x="704" y="1434"/>
      <point x="692" y="1438"/>
      <point x="678" y="1438" type="curve" smooth="yes"/>
      <point x="122" y="1438" type="line" smooth="yes"/>
      <point x="108" y="1438"/>
      <point x="96" y="1434"/>
      <point x="96" y="1391" type="curve" smooth="yes"/>
      <point x="96" y="1273" type="line" smooth="yes"/>
      <point x="96" y="1230"/>
      <point x="108" y="1226"/>
      <point x="122" y="1226" type="curve" smooth="yes"/>
      <point x="384" y="1226" type="line" smooth="yes"/>
      <point x="386" y="1226"/>
      <point x="388" y="1219"/>
      <point x="388" y="1212" type="curve" smooth="yes"/>
      <point x="388" y="1208"/>
      <point x="388" y="1205"/>
      <point x="386" y="1202" type="curve"/>
      <point x="105" y="248" type="line" smooth="yes"/>
      <point x="96" y="216"/>
      <point x="84" y="185"/>
      <point x="84" y="138" type="curve" smooth="yes"/>
      <point x="84" y="47" type="line" smooth="yes"/>
      <point x="84" y="4"/>
      <point x="96" y="0"/>
    </contour>
    <contour>
      <point x="385" y="1438" type="move" name="top"/>
    </contour>
  </outline>
</glyph>
<glyph name="bracketright" format="1">
  <advance width="664"/>
  <unicode hex="005D"/>
  <outline>
    <contour>
      <point x="139" y="-162" type="curve" smooth="yes"/>
      <point x="513" y="-162" type="line" smooth="yes"/>
      <point x="529" y="-162"/>
      <point x="541" y="-158"/>
      <point x="540" y="-115" type="curve"/>
      <point x="540" y="1381" type="line"/>
      <point x="541" y="1424"/>
      <point x="528" y="1438"/>
      <point x="513" y="1438" type="curve" smooth="yes"/>
      <point x="139" y="1438" type="line" smooth="yes"/>
      <point x="123" y="1438"/>
      <point x="111" y="1424"/>
      <point x="111" y="1381" type="curve" smooth="yes"/>
      <point x="111" y="1241" type="line" smooth="yes"/>
      <point x="111" y="1198"/>
      <point x="123" y="1182"/>
      <point x="139" y="1182" type="curve" smooth="yes"/>
      <point x="265" y="1182" type="line" smooth="yes"/>
      <point x="272" y="1182"/>
      <point x="278" y="1167"/>
      <point x="278" y="1147" type="curve" smooth="yes"/>
      <point x="278" y="131" type="line" smooth="yes"/>
      <point x="278" y="111"/>
      <point x="272" y="94"/>
      <point x="265" y="94" type="curve" smooth="yes"/>
      <point x="138" y="94" type="line" smooth="yes"/>
      <point x="123" y="94"/>
      <point x="111" y="90"/>
      <point x="111" y="47" type="curve" smooth="yes"/>
      <point x="111" y="-115" type="line" smooth="yes"/>
      <point x="111" y="-158"/>
      <point x="123" y="-162"/>
    </contour>
  </outline>
</glyph>
<glyph name="asciicircum" format="1">
  <advance width="1030"/>
  <unicode hex="005E"/>
  <outline>
    <contour>
      <point x="111" y="432" type="curve" smooth="yes"/>
      <point x="223" y="432" type="line" smooth="yes"/>
      <point x="259" y="432"/>
      <point x="279" y="445"/>
      <point x="294" y="501" type="curve" smooth="yes"/>
      <point x="492" y="1104" type="line" smooth="yes"/>
      <point x="499" y="1130"/>
      <point x="504" y="1135"/>
      <point x="513" y="1135" type="curve" smooth="yes"/>
      <point x="522" y="1135"/>
      <point x="527" y="1130"/>
      <point x="534" y="1104" type="curve" smooth="yes"/>
      <point x="740" y="501" type="line" smooth="yes"/>
      <point x="756" y="445"/>
      <point x="780" y="432"/>
      <point x="806" y="432" type="curve" smooth="yes"/>
      <point x="919" y="432" type="line" smooth="yes"/>
      <point x="955" y="432"/>
      <point x="951" y="470"/>
      <point x="940" y="500" type="curve" smooth="yes"/>
      <point x="623" y="1370" type="line"/>
      <point x="605" y="1413"/>
      <point x="593" y="1438"/>
      <point x="546" y="1438" type="curve" smooth="yes"/>
      <point x="481" y="1438" type="line" smooth="yes"/>
      <point x="434" y="1438"/>
      <point x="419" y="1413"/>
      <point x="402" y="1371" type="curve"/>
      <point x="91" y="499" type="line" smooth="yes"/>
      <point x="79" y="467"/>
      <point x="76" y="432"/>
    </contour>
  </outline>
</glyph>
<glyph name="b" format="1">
  <advance width="808"/>
  <unicode hex="0062"/>
  <outline>
    <contour>
      <point x="469" y="-10" type="curve" smooth="yes"/>
      <point x="599" y="-10"/>
      <point x="727" y="133"/>
      <point x="727" y="498" type="curve" smooth="yes"/>
      <point x="727" y="885"/>
      <point x="601" y="1017"/>
      <point x="484" y="1017" type="curve" smooth="yes"/>
      <point x="423" y="1017"/>
      <point x="369" y="986"/>
      <point x="332" y="904" type="curve" smooth="yes"/>
      <point x="330" y="900"/>
      <point x="326" y="896"/>
      <point x="322" y="896" type="curve" smooth="yes"/>
      <point x="319" y="896"/>
      <point x="315" y="901"/>
      <point x="315" y="915" type="curve" smooth="yes"/>
      <point x="315" y="1346" type="line" smooth="yes"/>
      <point x="315" y="1389"/>
      <point x="303" y="1423"/>
      <point x="289" y="1423" type="curve" smooth="yes"/>
      <point x="135" y="1423" type="line" smooth="yes"/>
      <point x="120" y="1423"/>
      <point x="108" y="1389"/>
      <point x="108" y="1346" type="curve" smooth="yes"/>
      <point x="108" y="67" type="line" smooth="yes"/>
      <point x="108" y="24"/>
      <point x="115" y="0"/>
      <point x="129" y="0" type="curve" smooth="yes"/>
      <point x="170" y="0" type="line" smooth="yes"/>
      <point x="184" y="0"/>
      <point x="191" y="25"/>
      <point x="199" y="63" type="curve"/>
      <point x="217" y="137"/>
      <point x="226" y="155"/>
      <point x="230" y="178" type="curve" smooth="yes"/>
      <point x="231" y="183"/>
      <point x="235" y="185"/>
      <point x="238" y="185" type="curve" smooth="yes"/>
      <point x="240" y="185"/>
      <point x="242" y="184"/>
      <point x="243" y="181" type="curve" smooth="yes"/>
      <point x="290" y="19"/>
      <point x="381" y="-10"/>
    </contour>
    <contour>
      <point x="423" y="165" type="curve" smooth="yes"/>
      <point x="356" y="165"/>
      <point x="315" y="315"/>
      <point x="315" y="514" type="curve" smooth="yes"/>
      <point x="315" y="709"/>
      <point x="349" y="842"/>
      <point x="416" y="842" type="curve" smooth="yes"/>
      <point x="480" y="842"/>
      <point x="511" y="700"/>
      <point x="511" y="514" type="curve" smooth="yes"/>
      <point x="511" y="287"/>
      <point x="487" y="165"/>
    </contour>
  </outline>
</glyph>
<glyph name="e" format="1">
  <advance width="721"/>
  <unicode hex="0065"/>
  <outline>
    <contour>
      <point x="404" y="-10" type="curve" smooth="yes"/>
      <point x="577" y="-10"/>
      <point x="652" y="94"/>
      <point x="652" y="234" type="curve" smooth="yes"/>
      <point x="652" y="265"/>
      <point x="648" y="287"/>
      <point x="646" y="297" type="curve" smooth="yes"/>
      <point x="644" y="307"/>
      <point x="638" y="314"/>
      <point x="622" y="314" type="curve" smooth="yes"/>
      <point x="519" y="314" type="line" smooth="yes"/>
      <point x="506" y="314"/>
      <point x="498" y="308"/>
      <point x="496" y="290" type="curve" smooth="yes"/>
      <point x="490" y="237"/>
      <point x="481" y="165"/>
      <point x="409" y="165" type="curve" smooth="yes"/>
      <point x="353" y="165"/>
      <point x="299" y="199"/>
      <point x="299" y="421" type="curve" smooth="yes"/>
      <point x="299" y="437"/>
      <point x="302" y="455"/>
      <point x="308" y="455" type="curve" smooth="yes"/>
      <point x="646" y="455" type="line" smooth="yes"/>
      <point x="659.512" y="455"/>
      <point x="659" y="499.914"/>
      <point x="659" y="520" type="curve" smooth="yes"/>
      <point x="659" y="936"/>
      <point x="511" y="1018"/>
      <point x="390" y="1018" type="curve" smooth="yes"/>
      <point x="255" y="1018"/>
      <point x="82" y="961"/>
      <point x="82" y="504" type="curve" smooth="yes"/>
      <point x="82" y="37"/>
      <point x="268" y="-10"/>
    </contour>
    <contour>
      <point x="304" y="590" type="line" smooth="yes"/>
      <point x="299" y="590"/>
      <point x="299" y="618"/>
      <point x="299" y="632" type="curve" smooth="yes"/>
      <point x="301" y="763"/>
      <point x="340" y="843"/>
      <point x="388" y="843" type="curve" smooth="yes"/>
      <point x="436" y="843"/>
      <point x="469" y="759"/>
      <point x="472" y="627" type="curve" smooth="yes"/>
      <point x="472" y="614"/>
      <point x="472" y="590"/>
      <point x="468" y="590" type="curve" smooth="yes"/>
    </contour>
    <contour>
      <point x="361" y="1006" type="move" name="top"/>
    </contour>
    <contour>
      <point x="361" y="0" type="move" name="bottom"/>
    </contour>
    <contour>
      <point x="649" y="10" type="move" name="ogonek"/>
    </contour>
  </outline>
</glyph>
<glyph name="h" format="1">
  <advance width="864"/>
  <unicode hex="0068"/>
  <outline>
    <contour>
      <point x="136" y="0" type="curve" smooth="yes"/>
      <point x="315" y="0" type="line" smooth="yes"/>
      <point x="329" y="0"/>
      <point x="341" y="4"/>
      <point x="341" y="47" type="curve" smooth="yes"/>
      <point x="341" y="574" type="line" smooth="yes"/>
      <point x="341" y="757"/>
      <point x="383" y="841"/>
      <point x="450" y="841" type="curve" smooth="yes"/>
      <point x="514" y="841"/>
      <point x="538" y="765"/>
      <point x="538" y="574" type="curve" smooth="yes"/>
      <point x="538" y="47" type="line" smooth="yes"/>
      <point x="538" y="4"/>
      <point x="549" y="0"/>
      <point x="564" y="0" type="curve" smooth="yes"/>
      <point x="744" y="0" type="line" smooth="yes"/>
      <point x="759" y="0"/>
      <point x="770" y="4"/>
      <point x="770" y="47" type="curve" smooth="yes"/>
      <point x="770" y="561" type="line" smooth="yes"/>
      <point x="770" y="913"/>
      <point x="666" y="1017"/>
      <point x="544" y="1017" type="curve" smooth="yes"/>
      <point x="485" y="1017"/>
      <point x="400" y="985"/>
      <point x="355" y="896" type="curve" smooth="yes"/>
      <point x="353" y="892"/>
      <point x="350" y="889"/>
      <point x="348" y="889" type="curve" smooth="yes"/>
      <point x="344" y="889"/>
      <point x="341" y="894"/>
      <point x="341" y="909" type="curve" smooth="yes"/>
      <point x="341" y="1385" type="line" smooth="yes"/>
      <point x="341" y="1428"/>
      <point x="329" y="1436"/>
      <point x="315" y="1436" type="curve" smooth="yes"/>
      <point x="136" y="1436" type="line" smooth="yes"/>
      <point x="121" y="1436"/>
      <point x="109" y="1428"/>
      <point x="109" y="1385" type="curve" smooth="yes"/>
      <point x="109" y="47" type="line" smooth="yes"/>
      <point x="109" y="4"/>
      <point x="121" y="0"/>
    </contour>
    <contour>
      <point x="432" y="1006" type="move" name="top"/>
    </contour>
    <contour>
      <point x="432" y="503" type="move" name="center"/>
    </contour>
  </outline>
</glyph>
<glyph name="i" format="1">
  <advance width="407"/>
  <unicode hex="0069"/>
  <outline>
    <contour>
      <point x="135" y="0" type="curve" smooth="yes"/>
      <point x="290" y="0" type="line" smooth="yes"/>
      <point x="304" y="0"/>
      <point x="316" y="34"/>
      <point x="316" y="77" type="curve" smooth="yes"/>
      <point x="316" y="929" type="line" smooth="yes"/>
      <point x="316" y="972"/>
      <point x="304" y="1006"/>
      <point x="290" y="1006" type="curve" smooth="yes"/>
      <point x="135" y="1006" type="line" smooth="yes"/>
      <point x="120" y="1006"/>
      <point x="109" y="972"/>
      <point x="109" y="929" type="curve" smooth="yes"/>
      <point x="109" y="77" type="line" smooth="yes"/>
      <point x="109" y="34"/>
      <point x="120" y="0"/>
    </contour>
    <contour>
      <point x="135" y="1152" type="curve" smooth="yes"/>
      <point x="290" y="1152" type="line" smooth="yes"/>
      <point x="304" y="1152"/>
      <point x="316" y="1166"/>
      <point x="316" y="1209" type="curve" smooth="yes"/>
      <point x="316" y="1381" type="line" smooth="yes"/>
      <point x="316" y="1424"/>
      <point x="304" y="1438"/>
      <point x="290" y="1438" type="curve" smooth="yes"/>
      <point x="135" y="1438" type="line" smooth="yes"/>
      <point x="120" y="1438"/>
      <point x="109" y="1424"/>
      <point x="109" y="1381" type="curve" smooth="yes"/>
      <point x="109" y="1209" type="line" smooth="yes"/>
      <point x="109" y="1166"/>
      <point x="120" y="1152"/>
    </contour>
  </outline>
</glyph>
<glyph name="l" format="1">
  <advance width="408"/>
  <unicode hex="006C"/>
  <outline>
    <contour>
      <point x="137" y="0" type="curve" smooth="yes"/>
      <point x="292" y="0" type="line" smooth="yes"/>
      <point x="306" y="0"/>
      <point x="318" y="4"/>
      <point x="318" y="47" type="curve" smooth="yes"/>
      <point x="318" y="1418" type="line" smooth="yes"/>
      <point x="318" y="1461"/>
      <point x="306" y="1475"/>
      <point x="292" y="1475" type="curve" smooth="yes"/>
      <point x="137" y="1475" type="line" smooth="yes"/>
      <point x="122" y="1475"/>
      <point x="110" y="1461"/>
      <point x="110" y="1418" type="curve" smooth="yes"/>
      <point x="110" y="47" type="line" smooth="yes"/>
      <point x="110" y="4"/>
      <point x="122" y="0"/>
    </contour>
    <contour>
      <point x="204" y="1006" type="move" name="top"/>
    </contour>
    <contour>
      <point x="204" y="0" type="move" name="bottom"/>
    </contour>
    <contour>
      <point x="388" y="1006" type="move" name="topright"/>
    </contour>
  </outline>
</glyph>
<glyph name="n" format="1">
  <advance width="869"/>
  <unicode hex="006E"/>
  <outline>
    <contour>
      <point x="135" y="0" type="curve" smooth="yes"/>
      <point x="315" y="0" type="line" smooth="yes"/>
      <point x="329" y="0"/>
      <point x="341" y="4"/>
      <point x="341" y="47" type="curve" smooth="yes"/>
      <point x="341" y="578" type="line" smooth="yes"/>
      <point x="341" y="741"/>
      <point x="395" y="842"/>
      <point x="463" y="842" type="curve" smooth="yes"/>
      <point x="527" y="842"/>
      <point x="543" y="739"/>
      <point x="543" y="578" type="curve" smooth="yes"/>
      <point x="543" y="47" type="line" smooth="yes"/>
      <point x="543" y="4"/>
      <point x="554" y="0"/>
      <point x="569" y="0" type="curve" smooth="yes"/>
      <point x="749" y="0" type="line" smooth="yes"/>
      <point x="764" y="0"/>
      <point x="775" y="4"/>
      <point x="775" y="47" type="curve" smooth="yes"/>
      <point x="775" y="555" type="line" smooth="yes"/>
      <point x="775" y="922"/>
      <point x="676" y="1017"/>
      <point x="522" y="1017" type="curve" smooth="yes"/>
      <point x="439" y="1017"/>
      <point x="333" y="1001"/>
      <point x="280" y="843" type="curve" smooth="yes"/>
      <point x="279" y="839"/>
      <point x="276" y="836"/>
      <point x="273" y="836" type="curve" smooth="yes"/>
      <point x="270" y="836"/>
      <point x="267" y="839"/>
      <point x="265" y="845" type="curve" smooth="yes"/>
      <point x="239" y="962" type="line" smooth="yes"/>
      <point x="230" y="1001"/>
      <point x="213" y="1006"/>
      <point x="198" y="1006" type="curve" smooth="yes"/>
      <point x="135" y="1006" type="line" smooth="yes"/>
      <point x="121" y="1006"/>
      <point x="109" y="992"/>
      <point x="109" y="949" type="curve" smooth="yes"/>
      <point x="109" y="47" type="line" smooth="yes"/>
      <point x="109" y="4"/>
      <point x="121" y="0"/>
    </contour>
    <contour>
      <point x="435" y="1006" type="move" name="top"/>
    </contour>
    <contour>
      <point x="435" y="0" type="move" name="bottom"/>
    </contour>
  </outline>
</glyph>
<glyph name="o" format="1">
  <advance width="819"/>
  <unicode hex="006F"/>
  <outline>
    <contour>
      <point x="410" y="165" type="curve" smooth="yes"/>
      <point x="344" y="165"/>
      <point x="308" y="209"/>
      <point x="308" y="508" type="curve" smooth="yes"/>
      <point x="308" y="782"/>
      <point x="343" y="842"/>
      <point x="410" y="842" type="curve" smooth="yes"/>
      <point x="477" y="842"/>
      <point x="511" y="782"/>
      <point x="511" y="508" type="curve" smooth="yes"/>
      <point x="511" y="209"/>
      <point x="475" y="165"/>
    </contour>
    <contour>
      <point x="410" y="-10" type="curve" smooth="yes"/>
      <point x="542" y="-10"/>
      <point x="737" y="0"/>
      <point x="737" y="508" type="curve" smooth="yes"/>
      <point x="737" y="1006"/>
      <point x="529" y="1017"/>
      <point x="410" y="1017" type="curve" smooth="yes"/>
      <point x="291" y="1017"/>
      <point x="82" y="1006"/>
      <point x="82" y="508" type="curve" smooth="yes"/>
      <point x="82" y="0"/>
      <point x="278" y="-10"/>
    </contour>
    <contour>
      <point x="410" y="1006" type="move" name="top"/>
    </contour>
  </outline>
</glyph>
<glyph name="s" format="1">
  <advance width="624"/>
  <unicode hex="0073"/>
  <outline>
    <contour>
      <point x="299" y="-10" type="curve" smooth="yes"/>
      <point x="474" y="-10"/>
      <point x="573" y="88"/>
      <point x="573" y="266" type="curve" smooth="yes"/>
      <point x="573" y="446"/>
      <point x="491" y="531"/>
      <point x="386" y="600" type="curve" smooth="yes"/>
      <point x="321" y="643"/>
      <point x="265" y="684"/>
      <point x="265" y="748" type="curve" smooth="yes"/>
      <point x="265" y="797.892"/>
      <point x="294.145" y="833.084"/>
      <point x="344.876" y="833.084" type="curve" smooth="yes"/>
      <point x="389.906" y="833.084"/>
      <point x="440.315" y="799.573"/>
      <point x="486" y="750" type="curve"/>
      <point x="564" y="903" type="line"/>
      <point x="507" y="967"/>
      <point x="428" y="1017"/>
      <point x="326" y="1017" type="curve" smooth="yes"/>
      <point x="173" y="1017"/>
      <point x="73" y="892"/>
      <point x="73" y="732" type="curve" smooth="yes"/>
      <point x="73" y="570"/>
      <point x="137" y="504"/>
      <point x="248" y="422" type="curve" smooth="yes"/>
      <point x="346" y="350"/>
      <point x="382" y="324"/>
      <point x="382" y="268" type="curve" smooth="yes"/>
      <point x="382" y="217"/>
      <point x="357" y="165"/>
      <point x="290" y="165" type="curve" smooth="yes"/>
      <point x="234" y="165"/>
      <point x="169" y="201"/>
      <point x="109" y="268" type="curve"/>
      <point x="37" y="123" type="line"/>
      <point x="104" y="42"/>
      <point x="212" y="-10"/>
    </contour>
    <contour>
      <point x="312" y="1006" type="move" name="top"/>
    </contour>
    <contour>
      <point x="312" y="0" type="move" name="bottom"/>
    </contour>
  </outline>
</glyph>
<glyph name="v" format="1">
  <advance width="723"/>
  <unicode hex="0076"/>
  <outline>
    <contour>
      <point x="259" y="0" type="curve" smooth="yes"/>
      <point x="458" y="0" type="line" smooth="yes"/>
      <point x="474" y="0"/>
      <point x="489" y="27"/>
      <point x="496" y="67" type="curve" smooth="yes"/>
      <point x="662" y="945" type="line" smooth="yes"/>
      <point x="663" y="952"/>
      <point x="665" y="960"/>
      <point x="665" y="967" type="curve" smooth="yes"/>
      <point x="665" y="990"/>
      <point x="658" y="1006"/>
      <point x="649" y="1006" type="curve" smooth="yes"/>
      <point x="499" y="1006" type="line" smooth="yes"/>
      <point x="483" y="1006"/>
      <point x="467" y="990"/>
      <point x="461" y="949" type="curve" smooth="yes"/>
      <point x="379" y="342" type="line" smooth="yes"/>
      <point x="378" y="335"/>
      <point x="376" y="332"/>
      <point x="374" y="332" type="curve" smooth="yes"/>
      <point x="372" y="332"/>
      <point x="370" y="335"/>
      <point x="368" y="342" type="curve"/>
      <point x="287" y="949" type="line"/>
      <point x="280" y="990"/>
      <point x="266" y="1006"/>
      <point x="250" y="1006" type="curve" smooth="yes"/>
      <point x="74" y="1006" type="line" smooth="yes"/>
      <point x="65" y="1006"/>
      <point x="58" y="990"/>
      <point x="58" y="966" type="curve" smooth="yes"/>
      <point x="58" y="958"/>
      <point x="58" y="951"/>
      <point x="60" y="944" type="curve" smooth="yes"/>
      <point x="220" y="68" type="line" smooth="yes"/>
      <point x="228" y="27"/>
      <point x="243" y="0"/>
    </contour>
  </outline>
</glyph>
<glyph name="x" format="1">
  <advance width="738"/>
  <unicode hex="0078"/>
  <outline>
    <contour>
      <point x="59" y="0" type="curve" smooth="yes"/>
      <point x="232" y="0" type="line" smooth="yes"/>
      <point x="247" y="0"/>
      <point x="266" y="18"/>
      <point x="279" y="47" type="curve"/>
      <point x="355" y="234" type="line"/>
      <point x="359" y="241"/>
      <point x="362" y="244"/>
      <point x="365" y="244" type="curve" smooth="yes"/>
      <point x="369" y="244"/>
      <point x="373" y="240"/>
      <point x="375" y="233" type="curve" smooth="yes"/>
      <point x="441" y="50" type="line"/>
      <point x="453" y="20"/>
      <point x="471" y="0"/>
      <point x="487" y="0" type="curve" smooth="yes"/>
      <point x="696" y="0" type="line" smooth="yes"/>
      <point x="702" y="0"/>
      <point x="706" y="13"/>
      <point x="706" y="27" type="curve" smooth="yes"/>
      <point x="706" y="35"/>
      <point x="705" y="43"/>
      <point x="702" y="48" type="curve" smooth="yes"/>
      <point x="491" y="550" type="line" smooth="yes"/>
      <point x="489" y="555"/>
      <point x="487" y="564"/>
      <point x="487" y="572" type="curve" smooth="yes"/>
      <point x="487" y="581"/>
      <point x="489" y="589"/>
      <point x="492" y="595" type="curve" smooth="yes"/>
      <point x="661" y="960" type="line" smooth="yes"/>
      <point x="664" y="966"/>
      <point x="665" y="973"/>
      <point x="665" y="981" type="curve" smooth="yes"/>
      <point x="665" y="993"/>
      <point x="662" y="1006"/>
      <point x="656" y="1006" type="curve" smooth="yes"/>
      <point x="497" y="1006" type="line" smooth="yes"/>
      <point x="481" y="1006"/>
      <point x="463" y="987"/>
      <point x="450" y="958" type="curve" smooth="yes"/>
      <point x="384" y="808" type="line" smooth="yes"/>
      <point x="381" y="802"/>
      <point x="378" y="799"/>
      <point x="375" y="799" type="curve" smooth="yes"/>
      <point x="372" y="799"/>
      <point x="367" y="802"/>
      <point x="364" y="809" type="curve" smooth="yes"/>
      <point x="302" y="956" type="line" smooth="yes"/>
      <point x="289" y="987"/>
      <point x="272" y="1006"/>
      <point x="256" y="1006" type="curve" smooth="yes"/>
      <point x="50" y="1006" type="line" smooth="yes"/>
      <point x="44" y="1006"/>
      <point x="40" y="993"/>
      <point x="40" y="979" type="curve" smooth="yes"/>
      <point x="40" y="971"/>
      <point x="42" y="963"/>
      <point x="44" y="958" type="curve" smooth="yes"/>
      <point x="240" y="494" type="line"/>
      <point x="241" y="489"/>
      <point x="243" y="480"/>
      <point x="243" y="472" type="curve" smooth="yes"/>
      <point x="243" y="463"/>
      <point x="241" y="455"/>
      <point x="239" y="449" type="curve" smooth="yes"/>
      <point x="53" y="46" type="line" smooth="yes"/>
      <point x="51" y="40"/>
      <point x="51" y="33"/>
      <point x="51" y="26" type="curve" smooth="yes"/>
      <point x="51" y="13"/>
      <point x="54" y="0"/>
    </contour>
  </outline>
</glyph>
<glyph name="y" format="1">
  <advance width="712"/>
  <unicode hex="0079"/>
  <outline>
    <contour>
      <point x="263" y="-271" type="curve" smooth="yes"/>
      <point x="371" y="-271"/>
      <point x="431" y="-239"/>
      <point x="478" y="22" type="curve"/>
      <point x="655" y="944" type="line" smooth="yes"/>
      <point x="656" y="951"/>
      <point x="658" y="961"/>
      <point x="658" y="968" type="curve" smooth="yes"/>
      <point x="658" y="994"/>
      <point x="650" y="1006"/>
      <point x="640" y="1006" type="curve" smooth="yes"/>
      <point x="527" y="1006" type="line" smooth="yes"/>
      <point x="511" y="1006"/>
      <point x="497" y="1003"/>
      <point x="492" y="960" type="curve" smooth="yes"/>
      <point x="411" y="334" type="line" smooth="yes"/>
      <point x="411" y="327"/>
      <point x="409" y="323"/>
      <point x="407" y="323" type="curve" smooth="yes"/>
      <point x="405" y="323"/>
      <point x="403" y="330"/>
      <point x="402" y="336" type="curve" smooth="yes"/>
      <point x="292" y="963" type="line" smooth="yes"/>
      <point x="285" y="1005"/>
      <point x="269" y="1006"/>
      <point x="253" y="1006" type="curve" smooth="yes"/>
      <point x="85" y="1006" type="line" smooth="yes"/>
      <point x="77" y="1006"/>
      <point x="70" y="993"/>
      <point x="70" y="970" type="curve" smooth="yes"/>
      <point x="70" y="963"/>
      <point x="71" y="955"/>
      <point x="72" y="948" type="curve" smooth="yes"/>
      <point x="268" y="146" type="line"/>
      <point x="275" y="107"/>
      <point x="289" y="64"/>
      <point x="289" y="33" type="curve" smooth="yes"/>
      <point x="289" y="-77"/>
      <point x="254" y="-87"/>
      <point x="236" y="-87" type="curve" smooth="yes"/>
      <point x="226" y="-87"/>
      <point x="155" y="-64"/>
      <point x="152" y="-64" type="curve" smooth="yes"/>
      <point x="144" y="-64"/>
      <point x="125" y="-66"/>
      <point x="125" y="-157" type="curve" smooth="yes"/>
      <point x="125" y="-186"/>
      <point x="127" y="-212"/>
      <point x="136" y="-223" type="curve" smooth="yes"/>
      <point x="168" y="-261"/>
      <point x="223" y="-271"/>
    </contour>
    <contour>
      <point x="356" y="1006" type="move" name="top"/>
    </contour>
  </outline>
</glyph>
<glyph name="z" format="1">
  <advance width="631"/>
  <unicode hex="007A"/>
  <outline>
    <contour>
      <point x="102" y="0" type="curve" smooth="yes"/>
      <point x="553" y="0" type="line" smooth="yes"/>
      <point x="559" y="0"/>
      <point x="566" y="10"/>
      <point x="566" y="30" type="curve" smooth="yes"/>
      <point x="566" y="167" type="line" smooth="yes"/>
      <point x="566" y="187"/>
      <point x="559" y="200"/>
      <point x="553" y="198" type="curve"/>
      <point x="336" y="198" type="line"/>
      <point x="546" y="737" type="line" smooth="yes"/>
      <point x="552" y="752"/>
      <point x="556" y="766"/>
      <point x="556" y="789" type="curve" smooth="yes"/>
      <point x="556" y="975" type="line" smooth="yes"/>
      <point x="556" y="995"/>
      <point x="550" y="1006"/>
      <point x="544" y="1006" type="curve" smooth="yes"/>
      <point x="102" y="1006" type="line" smooth="yes"/>
      <point x="96" y="1006"/>
      <point x="90" y="995"/>
      <point x="90" y="975" type="curve" smooth="yes"/>
      <point x="90" y="834" type="line" smooth="yes"/>
      <point x="90" y="814"/>
      <point x="96" y="804"/>
      <point x="102" y="806" type="curve"/>
      <point x="321" y="806" type="line"/>
      <point x="98" y="247" type="line" smooth="yes"/>
      <point x="92" y="233"/>
      <point x="88" y="216"/>
      <point x="88" y="193" type="curve" smooth="yes"/>
      <point x="88" y="30" type="line" smooth="yes"/>
      <point x="88" y="10"/>
      <point x="95" y="0"/>
    </contour>
    <contour>
      <point x="316" y="1006" type="move" name="top"/>
    </contour>
  </outline>
</glyph>
<glyph name="braceleft" format="1">
  <advance width="541"/>
  <unicode hex="007B"/>
  <outline>
    <contour>
      <point x="454" y="1543" type="curve" smooth="yes"/>
      <point x="351" y="1543" type="line" smooth="yes"/>
      <point x="252" y="1543"/>
      <point x="194" y="1430"/>
      <point x="189" y="1158" type="curve" smooth="yes"/>
      <point x="189" y="1147"/>
      <point x="188" y="1088"/>
      <point x="187" y="1071" type="curve" smooth="yes"/>
      <point x="183" y="933"/>
      <point x="162" y="839"/>
      <point x="108" y="837" type="curve" smooth="yes"/>
      <point x="85" y="836"/>
      <point x="82" y="812"/>
      <point x="82" y="756" type="curve" smooth="yes"/>
      <point x="82" y="674" type="line" smooth="yes"/>
      <point x="82" y="618"/>
      <point x="83" y="584"/>
      <point x="108" y="583" type="curve" smooth="yes"/>
      <point x="160" y="581"/>
      <point x="184" y="516"/>
      <point x="188" y="369" type="curve" smooth="yes"/>
      <point x="188" y="345"/>
      <point x="188" y="316"/>
      <point x="188" y="288" type="curve" smooth="yes"/>
      <point x="193" y="18"/>
      <point x="247" y="-123"/>
      <point x="351" y="-123" type="curve" smooth="yes"/>
      <point x="454" y="-123" type="line" smooth="yes"/>
      <point x="468" y="-123"/>
      <point x="480" y="-88"/>
      <point x="480" y="-46" type="curve" smooth="yes"/>
      <point x="480" y="-16" type="line" smooth="yes"/>
      <point x="480" y="36"/>
      <point x="475" y="68"/>
      <point x="454" y="68" type="curve" smooth="yes"/>
      <point x="404" y="68"/>
      <point x="398" y="141"/>
      <point x="397" y="289" type="curve" smooth="yes"/>
      <point x="397" y="321"/>
      <point x="397" y="358"/>
      <point x="397" y="395" type="curve" smooth="yes"/>
      <point x="396" y="531"/>
      <point x="391" y="666"/>
      <point x="329" y="695" type="curve" smooth="yes"/>
      <point x="321" y="699"/>
      <point x="322" y="722"/>
      <point x="329" y="725" type="curve" smooth="yes"/>
      <point x="395" y="757"/>
      <point x="400" y="910"/>
      <point x="401" y="1057" type="curve" smooth="yes"/>
      <point x="401" y="1073"/>
      <point x="401" y="1148"/>
      <point x="401" y="1167" type="curve" smooth="yes"/>
      <point x="403" y="1298"/>
      <point x="409" y="1352"/>
      <point x="454" y="1352" type="curve" smooth="yes"/>
      <point x="475" y="1352"/>
      <point x="480" y="1384"/>
      <point x="480" y="1436" type="curve" smooth="yes"/>
      <point x="480" y="1466" type="line" smooth="yes"/>
      <point x="480" y="1508"/>
      <point x="468" y="1543"/>
    </contour>
  </outline>
</glyph>
<glyph name="asciitilde" format="1">
  <advance width="1128"/>
  <unicode hex="007E"/>
  <outline>
    <contour>
      <point x="380" y="730" type="curve" smooth="yes"/>
      <point x="477" y="730"/>
      <point x="641" y="829"/>
      <point x="731" y="829" type="curve" smooth="yes"/>
      <point x="770" y="829"/>
      <point x="803" y="813"/>
      <point x="843" y="768" type="curve" smooth="yes"/>
      <point x="849" y="761"/>
      <point x="856" y="758"/>
      <point x="862" y="758" type="curve" smooth="yes"/>
      <point x="895" y="758"/>
      <point x="932" y="830"/>
      <point x="932" y="876" type="curve" smooth="yes"/>
      <point x="932" y="887"/>
      <point x="930" y="896"/>
      <point x="925" y="903" type="curve" smooth="yes"/>
      <point x="870" y="975"/>
      <point x="807" y="1007"/>
      <point x="747" y="1007" type="curve" smooth="yes"/>
      <point x="647" y="1007"/>
      <point x="486" y="909"/>
      <point x="401" y="909" type="curve" smooth="yes"/>
      <point x="366" y="909"/>
      <point x="316" y="938"/>
      <point x="273" y="995" type="curve" smooth="yes"/>
      <point x="268" y="1002"/>
      <point x="261" y="1006"/>
      <point x="253" y="1006" type="curve" smooth="yes"/>
      <point x="244" y="1006"/>
      <point x="234" y="1000"/>
      <point x="226" y="982" type="curve" smooth="yes"/>
      <point x="192" y="911" type="line" smooth="yes"/>
      <point x="187" y="902"/>
      <point x="185" y="894"/>
      <point x="185" y="886" type="curve" smooth="yes"/>
      <point x="185" y="870"/>
      <point x="194" y="855"/>
      <point x="203" y="842" type="curve" smooth="yes"/>
      <point x="258" y="762"/>
      <point x="314" y="730"/>
    </contour>
  </outline>
</glyph>
<glyph name="yen" format="1">
  <advance width="800"/>
  <unicode hex="00A5"/>
  <outline>
    <contour>
      <point x="299" y="0" type="curve" smooth="yes"/>
      <point x="508" y="0" type="line" smooth="yes"/>
      <point x="522" y="0"/>
      <point x="535" y="7"/>
      <point x="535" y="50" type="curve" smooth="yes"/>
      <point x="535" y="296" type="line"/>
      <point x="703" y="296" type="line" smooth="yes"/>
      <point x="717" y="296"/>
      <point x="729" y="300"/>
      <point x="729" y="343" type="curve" smooth="yes"/>
      <point x="729" y="444" type="line" smooth="yes"/>
      <point x="729" y="487"/>
      <point x="717" y="491"/>
      <point x="703" y="491" type="curve" smooth="yes"/>
      <point x="550" y="491" type="line"/>
      <point x="570" y="573" type="line"/>
      <point x="710" y="573" type="line" smooth="yes"/>
      <point x="724" y="573"/>
      <point x="736" y="577"/>
      <point x="736" y="620" type="curve" smooth="yes"/>
      <point x="736" y="721" type="line" smooth="yes"/>
      <point x="736" y="764"/>
      <point x="724" y="768"/>
      <point x="710" y="768" type="curve" smooth="yes"/>
      <point x="619" y="768" type="line"/>
      <point x="771" y="1376" type="line" smooth="yes"/>
      <point x="772" y="1383"/>
      <point x="774" y="1391"/>
      <point x="774" y="1399" type="curve" smooth="yes"/>
      <point x="774" y="1419"/>
      <point x="768" y="1438"/>
      <point x="760" y="1438" type="curve" smooth="yes"/>
      <point x="599" y="1438" type="line" smooth="yes"/>
      <point x="584" y="1438"/>
      <point x="565" y="1413"/>
      <point x="558" y="1375" type="curve" smooth="yes"/>
      <point x="432" y="768" type="line"/>
      <point x="412" y="768" type="line"/>
      <point x="283" y="1376" type="line"/>
      <point x="276" y="1415"/>
      <point x="257" y="1438"/>
      <point x="240" y="1438" type="curve" smooth="yes"/>
      <point x="42" y="1438" type="line" smooth="yes"/>
      <point x="34" y="1438"/>
      <point x="29" y="1419"/>
      <point x="29" y="1400" type="curve" smooth="yes"/>
      <point x="29" y="1392"/>
      <point x="30" y="1384"/>
      <point x="32" y="1377" type="curve" smooth="yes"/>
      <point x="187" y="768" type="line"/>
      <point x="99" y="768" type="line" smooth="yes"/>
      <point x="84" y="768"/>
      <point x="72" y="764"/>
      <point x="72" y="721" type="curve" smooth="yes"/>
      <point x="72" y="620" type="line" smooth="yes"/>
      <point x="72" y="577"/>
      <point x="84" y="573"/>
      <point x="99" y="573" type="curve" smooth="yes"/>
      <point x="237" y="573" type="line"/>
      <point x="257" y="491" type="line"/>
      <point x="99" y="491" type="line" smooth="yes"/>
      <point x="84" y="491"/>
      <point x="72" y="487"/>
      <point x="72" y="444" type="curve" smooth="yes"/>
      <point x="72" y="343" type="line" smooth="yes"/>
      <point x="72" y="300"/>
      <point x="84" y="296"/>
      <point x="99" y="296" type="curve" smooth="yes"/>
      <point x="273" y="296" type="line"/>
      <point x="273" y="50" type="line" smooth="yes"/>
      <point x="273" y="7"/>
      <point x="284" y="0"/>
    </contour>
  </outline>
</glyph>
<glyph name="brokenbar" format="1">
  <advance width="356"/>
  <unicode hex="00A6"/>
  <outline>
    <contour>
      <point x="151" y="-149" type="curve" smooth="yes"/>
      <point x="206" y="-149" type="line" smooth="yes"/>
      <point x="221" y="-149"/>
      <point x="233" y="-125"/>
      <point x="233" y="-82" type="curve" smooth="yes"/>
      <point x="233" y="471" type="line" smooth="yes"/>
      <point x="233" y="514"/>
      <point x="221" y="538"/>
      <point x="206" y="538" type="curve" smooth="yes"/>
      <point x="151" y="538" type="line" smooth="yes"/>
      <point x="136" y="538"/>
      <point x="124" y="514"/>
      <point x="124" y="471" type="curve" smooth="yes"/>
      <point x="124" y="-82" type="line" smooth="yes"/>
      <point x="124" y="-125"/>
      <point x="136" y="-149"/>
    </contour>
    <contour>
      <point x="150" y="868" type="curve" smooth="yes"/>
      <point x="205" y="868" type="line" smooth="yes"/>
      <point x="220" y="868"/>
      <point x="232" y="892"/>
      <point x="232" y="935" type="curve" smooth="yes"/>
      <point x="232" y="1488" type="line" smooth="yes"/>
      <point x="232" y="1531"/>
      <point x="220" y="1555"/>
      <point x="205" y="1555" type="curve" smooth="yes"/>
      <point x="150" y="1555" type="line" smooth="yes"/>
      <point x="135" y="1555"/>
      <point x="123" y="1531"/>
      <point x="123" y="1488" type="curve" smooth="yes"/>
      <point x="123" y="935" type="line" smooth="yes"/>
      <point x="123" y="892"/>
      <point x="135" y="868"/>
    </contour>
  </outline>
</glyph>
<glyph name="section" format="1">
  <advance width="917"/>
  <unicode hex="00A7"/>
  <outline>
    <contour>
      <point x="467" y="-16" type="curve" smooth="yes"/>
      <point x="741" y="-16"/>
      <point x="833" y="94"/>
      <point x="833" y="321" type="curve" smooth="yes"/>
      <point x="833" y="419"/>
      <point x="802" y="482"/>
      <point x="768" y="527" type="curve"/>
      <point x="797" y="579"/>
      <point x="833" y="651"/>
      <point x="833" y="730" type="curve" smooth="yes"/>
      <point x="833" y="1005"/>
      <point x="697" y="1015"/>
      <point x="489" y="1047" type="curve" smooth="yes"/>
      <point x="344" y="1069"/>
      <point x="280" y="1081"/>
      <point x="280" y="1160" type="curve" smooth="yes"/>
      <point x="280" y="1241"/>
      <point x="310" y="1282"/>
      <point x="478" y="1282" type="curve" smooth="yes"/>
      <point x="597" y="1282"/>
      <point x="634" y="1257"/>
      <point x="697" y="1222" type="curve" smooth="yes"/>
      <point x="719.997905961" y="1209.01519032"/>
      <point x="746.999976874" y="1215.99819211"/>
      <point x="757" y="1252" type="curve" smooth="yes"/>
      <point x="757" y="1252"/>
      <point x="773.328" y="1316.79"/>
      <point x="773.328" y="1323.59" type="curve" smooth="yes"/>
      <point x="773.328" y="1343.77"/>
      <point x="763.963" y="1360.02"/>
      <point x="749" y="1369" type="curve" smooth="yes"/>
      <point x="654" y="1431"/>
      <point x="582" y="1452"/>
      <point x="451" y="1452" type="curve" smooth="yes"/>
      <point x="317" y="1452"/>
      <point x="95" y="1428"/>
      <point x="95" y="1132" type="curve" smooth="yes"/>
      <point x="95" y="1041"/>
      <point x="122" y="979"/>
      <point x="167" y="936" type="curve"/>
      <point x="125" y="885"/>
      <point x="95" y="811"/>
      <point x="95" y="724" type="curve" smooth="yes"/>
      <point x="95" y="488"/>
      <point x="253" y="468"/>
      <point x="450" y="437" type="curve" smooth="yes"/>
      <point x="598" y="414"/>
      <point x="655" y="383"/>
      <point x="655" y="300" type="curve" smooth="yes"/>
      <point x="655" y="210"/>
      <point x="609" y="150"/>
      <point x="491" y="150" type="curve" smooth="yes"/>
      <point x="357" y="150"/>
      <point x="275" y="173"/>
      <point x="169" y="238" type="curve" smooth="yes"/>
      <point x="145.999659574" y="252.000398936"/>
      <point x="122.999446178" y="234.000219969"/>
      <point x="112" y="194" type="curve" smooth="yes"/>
      <point x="112" y="194"/>
      <point x="96.8097" y="133.264"/>
      <point x="96.8097" y="126.473" type="curve" smooth="yes"/>
      <point x="96.8097" y="105.279"/>
      <point x="106.611" y="90.8453"/>
      <point x="121" y="81" type="curve" smooth="yes"/>
      <point x="230" y="7"/>
      <point x="356" y="-16"/>
    </contour>
    <contour>
      <point x="656" y="601" type="curve"/>
      <point x="601" y="621"/>
      <point x="564" y="623"/>
      <point x="489" y="638" type="curve" smooth="yes"/>
      <point x="353" y="666"/>
      <point x="248" y="689"/>
      <point x="248" y="756" type="curve" smooth="yes"/>
      <point x="248" y="795"/>
      <point x="259" y="845"/>
      <point x="274" y="881" type="curve"/>
      <point x="327" y="861"/>
      <point x="380" y="854"/>
      <point x="450" y="845" type="curve" smooth="yes"/>
      <point x="618" y="823"/>
      <point x="690" y="802"/>
      <point x="690" y="718" type="curve" smooth="yes"/>
      <point x="690" y="689"/>
      <point x="656" y="601"/>
    </contour>
  </outline>
</glyph>
<glyph name="dieresis" format="1">
  <advance width="351"/>
  <unicode hex="00A8"/>
  <outline>
    <contour>
      <point x="26" y="0" type="curve" smooth="yes"/>
      <point x="96" y="0" type="line" smooth="yes"/>
      <point x="111" y="0"/>
      <point x="123" y="14"/>
      <point x="123" y="57" type="curve" smooth="yes"/>
      <point x="123" y="183" type="line" smooth="yes"/>
      <point x="123" y="226"/>
      <point x="111" y="240"/>
      <point x="96" y="240" type="curve" smooth="yes"/>
      <point x="26" y="240" type="line" smooth="yes"/>
      <point x="11" y="240"/>
      <point x="-1" y="226"/>
      <point x="-1" y="183" type="curve" smooth="yes"/>
      <point x="-1" y="57" type="line" smooth="yes"/>
      <point x="-1" y="14"/>
      <point x="11" y="0"/>
    </contour>
    <contour>
      <point x="257" y="0" type="curve" smooth="yes"/>
      <point x="327" y="0" type="line" smooth="yes"/>
      <point x="342" y="0"/>
      <point x="354" y="14"/>
      <point x="354" y="57" type="curve" smooth="yes"/>
      <point x="354" y="183" type="line" smooth="yes"/>
      <point x="354" y="226"/>
      <point x="342" y="240"/>
      <point x="327" y="240" type="curve" smooth="yes"/>
      <point x="257" y="240" type="line" smooth="yes"/>
      <point x="242" y="240"/>
      <point x="230" y="226"/>
      <point x="230" y="183" type="curve" smooth="yes"/>
      <point x="230" y="57" type="line" smooth="yes"/>
      <point x="230" y="14"/>
      <point x="242" y="0"/>
    </contour>
    <contour>
      <point x="166.5" y="1006" type="move" name="_top"/>
    </contour>
  </outline>
</glyph>
<glyph name="copyright" format="1">
  <advance width="1517"/>
  <unicode hex="00A9"/>
  <outline>
    <contour>
      <point x="768" y="337" type="curve" smooth="yes"/>
      <point x="835" y="337"/>
      <point x="884" y="351"/>
      <point x="941" y="380" type="curve" smooth="yes"/>
      <point x="953.712" y="386.511"/>
      <point x="958.638" y="401.098"/>
      <point x="958.638" y="417.828" type="curve" smooth="yes"/>
      <point x="958.638" y="452.614"/>
      <point x="937.343" y="496.67"/>
      <point x="920.477" y="496.67" type="curve" smooth="yes"/>
      <point x="919.293" y="496.67"/>
      <point x="918.131" y="496.452"/>
      <point x="917" y="496" type="curve" smooth="yes"/>
      <point x="887" y="484"/>
      <point x="869" y="461"/>
      <point x="786" y="461" type="curve" smooth="yes"/>
      <point x="699" y="461"/>
      <point x="603" y="515"/>
      <point x="603" y="729" type="curve" smooth="yes"/>
      <point x="603" y="905.512"/>
      <point x="670.85" y="995.255"/>
      <point x="781.72" y="995.255" type="curve" smooth="yes"/>
      <point x="829.569" y="995.255"/>
      <point x="875.285" y="972.572"/>
      <point x="913" y="949" type="curve" smooth="yes"/>
      <point x="915.703" y="947.362"/>
      <point x="918.346" y="946.602"/>
      <point x="920.902" y="946.602" type="curve" smooth="yes"/>
      <point x="939.021" y="946.602"/>
      <point x="952.78" y="984.751"/>
      <point x="952.78" y="1018.37" type="curve" smooth="yes"/>
      <point x="952.78" y="1037.9"/>
      <point x="948.134" y="1055.9"/>
      <point x="937" y="1064" type="curve" smooth="yes"/>
      <point x="888.553" y="1099.15"/>
      <point x="823.864" y="1117.15"/>
      <point x="754.075" y="1117.15" type="curve" smooth="yes"/>
      <point x="619.155" y="1117.15"/>
      <point x="467" y="1014.96"/>
      <point x="467" y="730" type="curve" smooth="yes"/>
      <point x="467" y="448"/>
      <point x="625" y="337"/>
    </contour>
    <contour>
      <point x="761" y="116" type="curve" smooth="yes"/>
      <point x="379" y="116"/>
      <point x="236" y="439"/>
      <point x="236" y="718" type="curve" smooth="yes"/>
      <point x="236" y="1008"/>
      <point x="379" y="1323"/>
      <point x="761" y="1323" type="curve" smooth="yes"/>
      <point x="1142" y="1323"/>
      <point x="1285" y="1008"/>
      <point x="1285" y="718" type="curve" smooth="yes"/>
      <point x="1285" y="439"/>
      <point x="1142" y="116"/>
    </contour>
    <contour>
      <point x="758" y="-18" type="curve" smooth="yes"/>
      <point x="1200" y="-18"/>
      <point x="1421" y="333"/>
      <point x="1421" y="722" type="curve" smooth="yes"/>
      <point x="1421" y="1111"/>
      <point x="1200" y="1461"/>
      <point x="758" y="1461" type="curve" smooth="yes"/>
      <point x="317" y="1461"/>
      <point x="96" y="1111"/>
      <point x="96" y="722" type="curve" smooth="yes"/>
      <point x="96" y="333"/>
      <point x="317" y="-18"/>
    </contour>
  </outline>
</glyph>
<glyph name="ordfeminine" format="1">
  <advance width="766"/>
  <unicode hex="00AA"/>
  <outline>
    <contour>
      <point x="299" y="662" type="curve" smooth="yes"/>
      <point x="396" y="662"/>
      <point x="441" y="732"/>
      <point x="464" y="818" type="curve" smooth="yes"/>
      <point x="465" y="821"/>
      <point x="466" y="822"/>
      <point x="468" y="822" type="curve" smooth="yes"/>
      <point x="474.602" y="822"/>
      <point x="513.949" y="718.342"/>
      <point x="518" y="707" type="curve" smooth="yes"/>
      <point x="527" y="682"/>
      <point x="537" y="672"/>
      <point x="548" y="672" type="curve" smooth="yes"/>
      <point x="583" y="672" type="line" smooth="yes"/>
      <point x="593" y="672"/>
      <point x="600" y="686"/>
      <point x="600" y="713" type="curve" smooth="yes"/>
      <point x="600" y="1120" type="line" smooth="yes"/>
      <point x="600" y="1390"/>
      <point x="507" y="1460"/>
      <point x="383" y="1460" type="curve" smooth="yes"/>
      <point x="255" y="1460"/>
      <point x="187" y="1407"/>
      <point x="162" y="1304" type="curve" smooth="yes"/>
      <point x="157" y="1282"/>
      <point x="159" y="1251"/>
      <point x="168" y="1249" type="curve" smooth="yes"/>
      <point x="168" y="1249"/>
      <point x="279" y="1219"/>
      <point x="280" y="1219" type="curve" smooth="yes"/>
      <point x="286" y="1219"/>
      <point x="291" y="1222"/>
      <point x="295" y="1237" type="curve" smooth="yes"/>
      <point x="309" y="1295"/>
      <point x="332" y="1324"/>
      <point x="369" y="1324" type="curve" smooth="yes"/>
      <point x="420" y="1324"/>
      <point x="439" y="1282"/>
      <point x="439" y="1189" type="curve" smooth="yes"/>
      <point x="439" y="1151" type="line" smooth="yes"/>
      <point x="439" y="1117"/>
      <point x="139" y="1172"/>
      <point x="139" y="856" type="curve" smooth="yes"/>
      <point x="139" y="720"/>
      <point x="204" y="662"/>
    </contour>
    <contour>
      <point x="331" y="783" type="curve" smooth="yes"/>
      <point x="297" y="783"/>
      <point x="287" y="818"/>
      <point x="287" y="865" type="curve" smooth="yes"/>
      <point x="287" y="967"/>
      <point x="349" y="1013"/>
      <point x="429" y="1041" type="curve" smooth="yes"/>
      <point x="430" y="1041"/>
      <point x="434" y="1042"/>
      <point x="435" y="1042" type="curve" smooth="yes"/>
      <point x="443" y="1042"/>
      <point x="443" y="987"/>
      <point x="443" y="976" type="curve" smooth="yes"/>
      <point x="443" y="887"/>
      <point x="388" y="783"/>
    </contour>
  </outline>
</glyph>
<glyph name="registered" format="1">
  <advance width="1517"/>
  <unicode hex="00AE"/>
  <outline>
    <contour>
      <point x="547" y="372" type="curve" smooth="yes"/>
      <point x="632" y="372" type="line" smooth="yes"/>
      <point x="642" y="372"/>
      <point x="650" y="390"/>
      <point x="650" y="410" type="curve" smooth="yes"/>
      <point x="650" y="641" type="line" smooth="yes"/>
      <point x="650" y="651"/>
      <point x="655" y="660"/>
      <point x="659" y="660" type="curve" smooth="yes"/>
      <point x="807" y="660" type="line" smooth="yes"/>
      <point x="839" y="660"/>
      <point x="853" y="647"/>
      <point x="871" y="614" type="curve" smooth="yes"/>
      <point x="881" y="595"/>
      <point x="902" y="496"/>
      <point x="902" y="410" type="curve"/>
      <point x="904" y="385"/>
      <point x="907" y="372"/>
      <point x="921" y="372" type="curve" smooth="yes"/>
      <point x="1014" y="372" type="line" smooth="yes"/>
      <point x="1020" y="372"/>
      <point x="1022" y="383"/>
      <point x="1022" y="396" type="curve" smooth="yes"/>
      <point x="1022" y="406"/>
      <point x="1020" y="435"/>
      <point x="1018" y="465" type="curve" smooth="yes"/>
      <point x="1012" y="593"/>
      <point x="978" y="679"/>
      <point x="924" y="702" type="curve"/>
      <point x="924" y="706" type="line"/>
      <point x="972" y="721"/>
      <point x="1007" y="765"/>
      <point x="1007" y="873" type="curve" smooth="yes"/>
      <point x="1007" y="1084"/>
      <point x="905" y="1096"/>
      <point x="783" y="1096" type="curve" smooth="yes"/>
      <point x="547" y="1096" type="line" smooth="yes"/>
      <point x="537" y="1096"/>
      <point x="528" y="1080"/>
      <point x="528" y="1058" type="curve" smooth="yes"/>
      <point x="528" y="410" type="line" smooth="yes"/>
      <point x="528" y="390"/>
      <point x="537" y="372"/>
    </contour>
    <contour>
      <point x="659" y="767" type="line" smooth="yes"/>
      <point x="655" y="767"/>
      <point x="650" y="776"/>
      <point x="650" y="786" type="curve" smooth="yes"/>
      <point x="650" y="969" type="line" smooth="yes"/>
      <point x="650" y="979"/>
      <point x="655" y="987"/>
      <point x="659" y="987" type="curve" smooth="yes"/>
      <point x="805" y="987" type="line" smooth="yes"/>
      <point x="854" y="987"/>
      <point x="889" y="959"/>
      <point x="889" y="870" type="curve" smooth="yes"/>
      <point x="889" y="822"/>
      <point x="876" y="767"/>
      <point x="844" y="767" type="curve" smooth="yes"/>
    </contour>
    <contour>
      <point x="761" y="116" type="curve" smooth="yes"/>
      <point x="379" y="116"/>
      <point x="236" y="439"/>
      <point x="236" y="718" type="curve" smooth="yes"/>
      <point x="236" y="1008"/>
      <point x="379" y="1323"/>
      <point x="761" y="1323" type="curve" smooth="yes"/>
      <point x="1142" y="1323"/>
      <point x="1285" y="1008"/>
      <point x="1285" y="718" type="curve" smooth="yes"/>
      <point x="1285" y="439"/>
      <point x="1142" y="116"/>
    </contour>
    <contour>
      <point x="758" y="-18" type="curve" smooth="yes"/>
      <point x="1200" y="-18"/>
      <point x="1421" y="333"/>
      <point x="1421" y="722" type="curve" smooth="yes"/>
      <point x="1421" y="1111"/>
      <point x="1200" y="1461"/>
      <point x="758" y="1461" type="curve" smooth="yes"/>
      <point x="317" y="1461"/>
      <point x="96" y="1111"/>
      <point x="96" y="722" type="curve" smooth="yes"/>
      <point x="96" y="333"/>
      <point x="317" y="-18"/>
    </contour>
  </outline>
</glyph>
<glyph name="plusminus" format="1">
  <advance width="802"/>
  <unicode hex="00B1"/>
  <outline>
    <contour>
      <point x="349" y="440" type="curve" smooth="yes"/>
      <point x="451" y="440" type="line" smooth="yes"/>
      <point x="469" y="440"/>
      <point x="482" y="444"/>
      <point x="482" y="485" type="curve" smooth="yes"/>
      <point x="482" y="699" type="line" smooth="yes"/>
      <point x="482" y="719"/>
      <point x="489" y="721"/>
      <point x="499" y="721" type="curve" smooth="yes"/>
      <point x="668" y="721" type="line" smooth="yes"/>
      <point x="684" y="721"/>
      <point x="699" y="725"/>
      <point x="699" y="766" type="curve" smooth="yes"/>
      <point x="699" y="813" type="line" smooth="yes"/>
      <point x="699" y="855"/>
      <point x="684" y="858"/>
      <point x="668" y="858" type="curve" smooth="yes"/>
      <point x="499" y="858" type="line" smooth="yes"/>
      <point x="489" y="858"/>
      <point x="482" y="860"/>
      <point x="482" y="880" type="curve" smooth="yes"/>
      <point x="482" y="1081" type="line" smooth="yes"/>
      <point x="482" y="1122"/>
      <point x="469" y="1126"/>
      <point x="451" y="1126" type="curve" smooth="yes"/>
      <point x="349" y="1126" type="line" smooth="yes"/>
      <point x="330" y="1126"/>
      <point x="316" y="1122"/>
      <point x="316" y="1081" type="curve" smooth="yes"/>
      <point x="316" y="880" type="line" smooth="yes"/>
      <point x="316" y="860"/>
      <point x="310" y="858"/>
      <point x="301" y="858" type="curve" smooth="yes"/>
      <point x="129" y="858" type="line" smooth="yes"/>
      <point x="112" y="858"/>
      <point x="98" y="855"/>
      <point x="98" y="813" type="curve" smooth="yes"/>
      <point x="98" y="766" type="line" smooth="yes"/>
      <point x="98" y="725"/>
      <point x="112" y="721"/>
      <point x="129" y="721" type="curve" smooth="yes"/>
      <point x="301" y="721" type="line" smooth="yes"/>
      <point x="310" y="721"/>
      <point x="316" y="719"/>
      <point x="316" y="699" type="curve" smooth="yes"/>
      <point x="316" y="485" type="line" smooth="yes"/>
      <point x="316" y="444"/>
      <point x="330" y="440"/>
    </contour>
    <contour>
      <point x="128" y="193" type="curve" smooth="yes"/>
      <point x="667" y="193" type="line" smooth="yes"/>
      <point x="683" y="193"/>
      <point x="698" y="197"/>
      <point x="698" y="238" type="curve" smooth="yes"/>
      <point x="698" y="285" type="line" smooth="yes"/>
      <point x="698" y="327"/>
      <point x="683" y="330"/>
      <point x="667" y="330" type="curve" smooth="yes"/>
      <point x="128" y="330" type="line" smooth="yes"/>
      <point x="111" y="330"/>
      <point x="97" y="327"/>
      <point x="97" y="285" type="curve" smooth="yes"/>
      <point x="97" y="238" type="line" smooth="yes"/>
      <point x="97" y="197"/>
      <point x="111" y="193"/>
    </contour>
  </outline>
</glyph>
<glyph name="paragraph" format="1">
  <advance width="1423"/>
  <unicode hex="00B6"/>
  <outline>
    <contour>
      <point x="730" y="-1" type="curve" smooth="yes"/>
      <point x="792" y="-1" type="line" smooth="yes"/>
      <point x="835" y="-1"/>
      <point x="855" y="33"/>
      <point x="855" y="76" type="curve" smooth="yes"/>
      <point x="855" y="730" type="line"/>
      <point x="948" y="730" type="line" smooth="yes"/>
      <point x="958" y="730"/>
      <point x="967" y="721"/>
      <point x="967" y="709" type="curve" smooth="yes"/>
      <point x="967" y="76" type="line" smooth="yes"/>
      <point x="967" y="33"/>
      <point x="986" y="-1"/>
      <point x="1029" y="-1" type="curve" smooth="yes"/>
      <point x="1081" y="-1" type="line" smooth="yes"/>
      <point x="1124" y="-1"/>
      <point x="1144" y="33"/>
      <point x="1144" y="76" type="curve" smooth="yes"/>
      <point x="1144" y="1334" type="line" smooth="yes"/>
      <point x="1144" y="1377"/>
      <point x="1128" y="1404"/>
      <point x="1085" y="1412" type="curve" smooth="yes"/>
      <point x="1035" y="1421"/>
      <point x="887" y="1438"/>
      <point x="772" y="1438" type="curve" smooth="yes"/>
      <point x="398" y="1438"/>
      <point x="252" y="1339"/>
      <point x="252" y="1091" type="curve" smooth="yes"/>
      <point x="252" y="831"/>
      <point x="482" y="730"/>
      <point x="641" y="730" type="curve" smooth="yes"/>
      <point x="668" y="730" type="line"/>
      <point x="668" y="76" type="line" smooth="yes"/>
      <point x="668" y="33"/>
      <point x="687" y="-1"/>
    </contour>
  </outline>
</glyph>
<glyph name="guillemotright" format="1">
  <advance width="918"/>
  <unicode hex="00BB"/>
  <outline>
    <contour>
      <point x="127" y="200" type="curve" smooth="yes"/>
      <point x="129" y="200"/>
      <point x="130" y="201"/>
      <point x="134" y="205" type="curve" smooth="yes"/>
      <point x="411" y="478" type="line" smooth="yes"/>
      <point x="430" y="496"/>
      <point x="434" y="544"/>
      <point x="434" y="591" type="curve" smooth="yes"/>
      <point x="434" y="755" type="line" smooth="yes"/>
      <point x="434" y="802"/>
      <point x="430" y="850"/>
      <point x="412" y="869" type="curve" smooth="yes"/>
      <point x="134" y="1154" type="line" smooth="yes"/>
      <point x="131" y="1158"/>
      <point x="128" y="1160"/>
      <point x="126" y="1160" type="curve" smooth="yes"/>
      <point x="119" y="1160"/>
      <point x="111" y="1141"/>
      <point x="111" y="1114" type="curve" smooth="yes"/>
      <point x="111" y="954" type="line" smooth="yes"/>
      <point x="111" y="908"/>
      <point x="120" y="864"/>
      <point x="135" y="844" type="curve" smooth="yes"/>
      <point x="307" y="686" type="line" smooth="yes"/>
      <point x="310" y="683"/>
      <point x="311" y="676"/>
      <point x="311" y="670" type="curve" smooth="yes"/>
      <point x="311" y="664"/>
      <point x="311" y="657"/>
      <point x="308" y="654" type="curve" smooth="yes"/>
      <point x="135" y="498" type="line" smooth="yes"/>
      <point x="121" y="479"/>
      <point x="111" y="435"/>
      <point x="111" y="389" type="curve" smooth="yes"/>
      <point x="111" y="246" type="line" smooth="yes"/>
      <point x="111" y="219"/>
      <point x="119" y="200"/>
    </contour>
    <contour>
      <point x="522" y="200" type="curve" smooth="yes"/>
      <point x="524" y="200"/>
      <point x="525" y="201"/>
      <point x="529" y="205" type="curve" smooth="yes"/>
      <point x="806" y="478" type="line" smooth="yes"/>
      <point x="825" y="496"/>
      <point x="829" y="544"/>
      <point x="829" y="591" type="curve" smooth="yes"/>
      <point x="829" y="755" type="line" smooth="yes"/>
      <point x="829" y="802"/>
      <point x="825" y="850"/>
      <point x="807" y="869" type="curve" smooth="yes"/>
      <point x="529" y="1154" type="line" smooth="yes"/>
      <point x="526" y="1158"/>
      <point x="523" y="1160"/>
      <point x="521" y="1160" type="curve" smooth="yes"/>
      <point x="514" y="1160"/>
      <point x="506" y="1141"/>
      <point x="506" y="1114" type="curve" smooth="yes"/>
      <point x="506" y="954" type="line" smooth="yes"/>
      <point x="506" y="908"/>
      <point x="515" y="864"/>
      <point x="530" y="844" type="curve" smooth="yes"/>
      <point x="702" y="686" type="line" smooth="yes"/>
      <point x="705" y="683"/>
      <point x="706" y="676"/>
      <point x="706" y="670" type="curve" smooth="yes"/>
      <point x="706" y="664"/>
      <point x="706" y="657"/>
      <point x="703" y="654" type="curve" smooth="yes"/>
      <point x="530" y="498" type="line" smooth="yes"/>
      <point x="516" y="479"/>
      <point x="506" y="435"/>
      <point x="506" y="389" type="curve" smooth="yes"/>
      <point x="506" y="246" type="line" smooth="yes"/>
      <point x="506" y="219"/>
      <point x="514" y="200"/>
    </contour>
  </outline>
</glyph>
<glyph name="Eth" format="1">
  <advance width="963"/>
  <unicode hex="00D0"/>
  <outline>
    <contour>
      <point x="397" y="212" type="curve" smooth="yes"/>
      <point x="390" y="212"/>
      <point x="384" y="217"/>
      <point x="384" y="237" type="curve" smooth="yes"/>
      <point x="384" y="631" type="line"/>
      <point x="422" y="631" type="line" smooth="yes"/>
      <point x="463" y="631"/>
      <point x="483" y="646"/>
      <point x="485" y="685" type="curve"/>
      <point x="485" y="752" type="line" smooth="yes"/>
      <point x="485" y="795"/>
      <point x="465" y="812"/>
      <point x="422" y="812" type="curve" smooth="yes"/>
      <point x="384" y="812" type="line"/>
      <point x="384" y="1199" type="line" smooth="yes"/>
      <point x="384" y="1219"/>
      <point x="390" y="1226"/>
      <point x="397" y="1226" type="curve" smooth="yes"/>
      <point x="480" y="1226" type="line" smooth="yes"/>
      <point x="546" y="1226"/>
      <point x="615" y="1163"/>
      <point x="615" y="729" type="curve" smooth="yes"/>
      <point x="615" y="289"/>
      <point x="560" y="212"/>
      <point x="469" y="212" type="curve" smooth="yes"/>
      <point x="446.999945941" y="212.0"/>
      <point x="423.002054123" y="211.000959499"/>
    </contour>
    <contour>
      <point x="149" y="0" type="curve" smooth="yes"/>
      <point x="483" y="0" type="line" smooth="yes"/>
      <point x="722" y="0"/>
      <point x="877" y="18"/>
      <point x="877" y="733" type="curve" smooth="yes"/>
      <point x="877" y="1262"/>
      <point x="741" y="1438"/>
      <point x="524" y="1438" type="curve" smooth="yes"/>
      <point x="149" y="1438" type="line" smooth="yes"/>
      <point x="134" y="1438"/>
      <point x="122" y="1434"/>
      <point x="122" y="1391" type="curve" smooth="yes"/>
      <point x="122" y="812" type="line"/>
      <point x="88" y="812" type="line" smooth="yes"/>
      <point x="45" y="812"/>
      <point x="26" y="795"/>
      <point x="26" y="752" type="curve" smooth="yes"/>
      <point x="26" y="691" type="line" smooth="yes"/>
      <point x="26" y="648"/>
      <point x="45" y="631"/>
      <point x="88" y="631" type="curve" smooth="yes"/>
      <point x="122" y="631" type="line"/>
      <point x="122" y="47" type="line" smooth="yes"/>
      <point x="122" y="4"/>
      <point x="134" y="0"/>
    </contour>
  </outline>
</glyph>
<glyph name="Oslash" format="1">
  <advance width="966"/>
  <unicode hex="00D8"/>
  <outline>
    <contour>
      <point x="312" y="-205" type="curve" smooth="yes"/>
      <point x="408" y="-207" type="line" smooth="yes"/>
      <point x="414" y="-207"/>
      <point x="421" y="-194"/>
      <point x="423" y="-174" type="curve" smooth="yes"/>
      <point x="445" y="-16" type="line"/>
      <point x="458" y="-17"/>
      <point x="470" y="-17"/>
      <point x="483" y="-17" type="curve" smooth="yes"/>
      <point x="755" y="-17"/>
      <point x="880" y="101"/>
      <point x="880" y="730" type="curve" smooth="yes"/>
      <point x="880" y="1201"/>
      <point x="803" y="1379"/>
      <point x="651" y="1438" type="curve"/>
      <point x="676" y="1614" type="line" smooth="yes"/>
      <point x="679.75" y="1629.0"/>
      <point x="675.454545455" y="1647.0"/>
      <point x="670" y="1647" type="curve" smooth="yes"/>
      <point x="575" y="1647" type="line" smooth="yes"/>
      <point x="569" y="1647"/>
      <point x="563" y="1634"/>
      <point x="560" y="1614" type="curve" smooth="yes"/>
      <point x="538" y="1461" type="line"/>
      <point x="521" y="1462"/>
      <point x="502" y="1463"/>
      <point x="483" y="1463" type="curve" smooth="yes"/>
      <point x="222" y="1463"/>
      <point x="86" y="1352"/>
      <point x="86" y="730" type="curve" smooth="yes"/>
      <point x="86" y="233"/>
      <point x="165" y="55"/>
      <point x="331" y="2" type="curve"/>
      <point x="306" y="-172" type="line" smooth="yes"/>
      <point x="306" y="-172"/>
      <point x="309.0" y="-205.0"/>
    </contour>
    <contour>
      <point x="374" y="307" type="line"/>
      <point x="355" y="388"/>
      <point x="348" y="521"/>
      <point x="348" y="730" type="curve" smooth="yes"/>
      <point x="348" y="1153"/>
      <point x="374" y="1247"/>
      <point x="484" y="1247" type="curve" smooth="yes"/>
      <point x="492" y="1247"/>
      <point x="500" y="1246"/>
      <point x="508" y="1245" type="curve"/>
    </contour>
    <contour>
      <point x="482" y="196" type="curve" smooth="yes"/>
      <point x="480" y="196"/>
      <point x="478" y="196"/>
      <point x="476" y="196" type="curve"/>
      <point x="603" y="1096" type="line"/>
      <point x="614" y="1017"/>
      <point x="618" y="900"/>
      <point x="618" y="730" type="curve" smooth="yes"/>
      <point x="618" y="307"/>
      <point x="589" y="196"/>
    </contour>
    <contour>
      <point x="428" y="1438" type="move" name="top"/>
    </contour>
  </outline>
</glyph>
<glyph name="oslash" format="1">
  <advance width="819"/>
  <unicode hex="00F8"/>
  <outline>
    <contour>
      <point x="195" y="-92" type="line" smooth="yes"/>
      <point x="198.998022472" y="-92.999505618"/>
      <point x="204.999866969" y="-86.0005390779"/>
      <point x="209" y="-73" type="curve"/>
      <point x="686" y="1046" type="line" smooth="yes"/>
      <point x="691.0" y="1054.992"/>
      <point x="692.0" y="1068.0"/>
      <point x="689" y="1068" type="curve" smooth="yes"/>
      <point x="635" y="1084" type="line" smooth="yes"/>
      <point x="632.007441489" y="1085.06244681"/>
      <point x="625.999830946" y="1076.99754218"/>
      <point x="620" y="1065" type="curve" smooth="yes"/>
      <point x="144" y="-53" type="line" smooth="yes"/>
      <point x="141.000341538" y="-63.0001564901"/>
      <point x="139.001799662" y="-74.0001836303"/>
      <point x="141" y="-75" type="curve" smooth="yes"/>
    </contour>
    <component base="o"/>
    <contour>
      <point x="410" y="1006" type="move" name="top"/>
    </contour>
  </outline>
</glyph>
<glyph name="dcroat" format="1">
  <advance width="844"/>
  <unicode hex="0111"/>
  <outline>
    <contour>
      <point x="354" y="-10" type="curve" smooth="yes"/>
      <point x="443" y="-10"/>
      <point x="542" y="11"/>
      <point x="579" y="200" type="curve"/>
      <point x="582" y="207"/>
      <point x="584" y="210"/>
      <point x="587" y="210" type="curve" smooth="yes"/>
      <point x="590" y="210"/>
      <point x="593" y="206"/>
      <point x="594" y="197" type="curve"/>
      <point x="625" y="64" type="line"/>
      <point x="633" y="25"/>
      <point x="649" y="0"/>
      <point x="666" y="0" type="curve" smooth="yes"/>
      <point x="709" y="0" type="line" smooth="yes"/>
      <point x="724" y="0"/>
      <point x="736" y="24"/>
      <point x="736" y="67" type="curve" smooth="yes"/>
      <point x="736" y="1164.2" type="line"/>
      <point x="802.196" y="1164.2" type="line" smooth="yes"/>
      <point x="830.388" y="1164.2"/>
      <point x="843.5" y="1181.77"/>
      <point x="843.5" y="1209.75" type="curve" smooth="yes"/>
      <point x="843.5" y="1249.45" type="line" smooth="yes"/>
      <point x="843.5" y="1277.43"/>
      <point x="830.388" y="1295"/>
      <point x="802.196" y="1295" type="curve" smooth="yes"/>
      <point x="736" y="1295" type="line"/>
      <point x="736" y="1366" type="line" smooth="yes"/>
      <point x="736" y="1409"/>
      <point x="724" y="1423"/>
      <point x="709" y="1423" type="curve" smooth="yes"/>
      <point x="536" y="1423" type="line" smooth="yes"/>
      <point x="521" y="1423"/>
      <point x="510" y="1409"/>
      <point x="510" y="1366" type="curve" smooth="yes"/>
      <point x="510" y="1295" type="line"/>
      <point x="359.649" y="1295" type="line" smooth="yes"/>
      <point x="331.457" y="1295"/>
      <point x="319" y="1277.43"/>
      <point x="319" y="1249.45" type="curve" smooth="yes"/>
      <point x="319" y="1209.75" type="line" smooth="yes"/>
      <point x="319" y="1181.77"/>
      <point x="331.457" y="1164.2"/>
      <point x="359.649" y="1164.2" type="curve" smooth="yes"/>
      <point x="510" y="1164.2" type="line"/>
      <point x="510" y="911" type="line" smooth="yes"/>
      <point x="510" y="901"/>
      <point x="507" y="897"/>
      <point x="504" y="897" type="curve" smooth="yes"/>
      <point x="501" y="897"/>
      <point x="497" y="901"/>
      <point x="494" y="906" type="curve" smooth="yes"/>
      <point x="459" y="987"/>
      <point x="411" y="1017"/>
      <point x="341" y="1017" type="curve" smooth="yes"/>
      <point x="223" y="1017"/>
      <point x="80" y="915"/>
      <point x="80" y="498" type="curve" smooth="yes"/>
      <point x="80" y="83"/>
      <point x="226" y="-10"/>
    </contour>
    <contour>
      <point x="410" y="165" type="curve" smooth="yes"/>
      <point x="345" y="165"/>
      <point x="306" y="210"/>
      <point x="306" y="514" type="curve" smooth="yes"/>
      <point x="306" y="779"/>
      <point x="345" y="842"/>
      <point x="409" y="842" type="curve" smooth="yes"/>
      <point x="476" y="842"/>
      <point x="509" y="762"/>
      <point x="509" y="514" type="curve" smooth="yes"/>
      <point x="509" y="236"/>
      <point x="476" y="165"/>
    </contour>
  </outline>
</glyph>
<glyph name="hbar" format="1">
  <advance width="864"/>
  <unicode hex="0127"/>
  <outline>
    <contour>
      <point x="136" y="0" type="curve" smooth="yes"/>
      <point x="315" y="0" type="line" smooth="yes"/>
      <point x="329" y="0"/>
      <point x="341" y="4"/>
      <point x="341" y="47" type="curve" smooth="yes"/>
      <point x="341" y="574" type="line" smooth="yes"/>
      <point x="341" y="757"/>
      <point x="383" y="841"/>
      <point x="450" y="841" type="curve" smooth="yes"/>
      <point x="514" y="841"/>
      <point x="538" y="765"/>
      <point x="538" y="574" type="curve" smooth="yes"/>
      <point x="538" y="47" type="line" smooth="yes"/>
      <point x="538" y="4"/>
      <point x="549" y="0"/>
      <point x="564" y="0" type="curve" smooth="yes"/>
      <point x="744" y="0" type="line" smooth="yes"/>
      <point x="759" y="0"/>
      <point x="770" y="4"/>
      <point x="770" y="47" type="curve" smooth="yes"/>
      <point x="770" y="561" type="line" smooth="yes"/>
      <point x="770" y="913"/>
      <point x="666" y="1017"/>
      <point x="544" y="1017" type="curve" smooth="yes"/>
      <point x="485" y="1017"/>
      <point x="400" y="985"/>
      <point x="355" y="896" type="curve" smooth="yes"/>
      <point x="353" y="892"/>
      <point x="350" y="889"/>
      <point x="348" y="889" type="curve" smooth="yes"/>
      <point x="344" y="889"/>
      <point x="341" y="894"/>
      <point x="341" y="909" type="curve" smooth="yes"/>
      <point x="341" y="1164.2" type="line"/>
      <point x="483.5" y="1164.2" type="line" smooth="yes"/>
      <point x="511.691" y="1164.2"/>
      <point x="524.804" y="1181.77"/>
      <point x="524.804" y="1209.75" type="curve" smooth="yes"/>
      <point x="524.804" y="1249.45" type="line" smooth="yes"/>
      <point x="524.804" y="1277.43"/>
      <point x="511.691" y="1295"/>
      <point x="483.5" y="1295" type="curve" smooth="yes"/>
      <point x="341" y="1295" type="line"/>
      <point x="341" y="1385" type="line" smooth="yes"/>
      <point x="341" y="1428"/>
      <point x="329" y="1436"/>
      <point x="315" y="1436" type="curve" smooth="yes"/>
      <point x="136" y="1436" type="line" smooth="yes"/>
      <point x="121" y="1436"/>
      <point x="109" y="1428"/>
      <point x="109" y="1385" type="curve" smooth="yes"/>
      <point x="109" y="1295" type="line"/>
      <point x="40.9531" y="1295" type="line" smooth="yes"/>
      <point x="12.7607" y="1295"/>
      <point x="0.303711" y="1277.43"/>
      <point x="0.303711" y="1249.45" type="curve" smooth="yes"/>
      <point x="0.303711" y="1209.75" type="line" smooth="yes"/>
      <point x="0.303711" y="1181.77"/>
      <point x="12.7607" y="1164.2"/>
      <point x="40.9531" y="1164.2" type="curve" smooth="yes"/>
      <point x="109" y="1164.2" type="line"/>
      <point x="109" y="47" type="line" smooth="yes"/>
      <point x="109" y="4"/>
      <point x="121" y="0"/>
    </contour>
  </outline>
</glyph>
<glyph name="lslash" format="1">
  <advance width="408"/>
  <unicode hex="0142"/>
  <outline>
    <contour>
      <point x="292" y="0" type="line" smooth="yes"/>
      <point x="306" y="0"/>
      <point x="318" y="4"/>
      <point x="318" y="47" type="curve" smooth="yes"/>
      <point x="318" y="761" type="line"/>
      <point x="420" y="788" type="line" smooth="yes"/>
      <point x="434" y="792"/>
      <point x="447" y="792"/>
      <point x="447" y="835" type="curve" smooth="yes"/>
      <point x="447" y="921" type="line" smooth="yes"/>
      <point x="447" y="964"/>
      <point x="434" y="972"/>
      <point x="420" y="968" type="curve" smooth="yes"/>
      <point x="318" y="941" type="line"/>
      <point x="318" y="1418" type="line" smooth="yes"/>
      <point x="318" y="1461"/>
      <point x="306" y="1475"/>
      <point x="292" y="1475" type="curve" smooth="yes"/>
      <point x="137" y="1475" type="line" smooth="yes"/>
      <point x="122" y="1475"/>
      <point x="110" y="1461"/>
      <point x="110" y="1418" type="curve" smooth="yes"/>
      <point x="110" y="885" type="line"/>
      <point x="8" y="858" type="line" smooth="yes"/>
      <point x="-6" y="854"/>
      <point x="-19" y="854"/>
      <point x="-19" y="811" type="curve" smooth="yes"/>
      <point x="-19" y="725" type="line" smooth="yes"/>
      <point x="-19" y="682"/>
      <point x="-6" y="674"/>
      <point x="8" y="678" type="curve" smooth="yes"/>
      <point x="110" y="705" type="line"/>
      <point x="110" y="47" type="line" smooth="yes"/>
      <point x="110" y="4"/>
      <point x="122" y="0"/>
      <point x="137" y="0" type="curve" smooth="yes"/>
    </contour>
  </outline>
</glyph>
<glyph name="OE" format="1">
  <advance width="1301"/>
  <unicode hex="0152"/>
  <outline>
    <contour>
      <point x="539" y="0" type="line" smooth="yes"/>
      <point x="356" y="0"/>
      <point x="86" y="70"/>
      <point x="86" y="721" type="curve" smooth="yes"/>
      <point x="86" y="1291"/>
      <point x="329" y="1438"/>
      <point x="510" y="1438" type="curve" smooth="yes"/>
      <point x="1199" y="1438" type="line" smooth="yes"/>
      <point x="1214" y="1438"/>
      <point x="1226" y="1403"/>
      <point x="1226" y="1361" type="curve" smooth="yes"/>
      <point x="1226" y="1303" type="line" smooth="yes"/>
      <point x="1226" y="1260"/>
      <point x="1215" y="1226"/>
      <point x="1199" y="1226" type="curve" smooth="yes"/>
      <point x="884" y="1226" type="line" smooth="yes"/>
      <point x="877" y="1226"/>
      <point x="871" y="1209"/>
      <point x="871" y="1189" type="curve" smooth="yes"/>
      <point x="871" y="868" type="line" smooth="yes"/>
      <point x="871" y="848"/>
      <point x="877" y="831"/>
      <point x="884" y="831" type="curve" smooth="yes"/>
      <point x="1134" y="831" type="line" smooth="yes"/>
      <point x="1149" y="831"/>
      <point x="1161" y="797"/>
      <point x="1161" y="754" type="curve" smooth="yes"/>
      <point x="1161" y="696" type="line" smooth="yes"/>
      <point x="1161" y="653"/>
      <point x="1149" y="619"/>
      <point x="1134" y="619" type="curve" smooth="yes"/>
      <point x="884" y="619" type="line" smooth="yes"/>
      <point x="877" y="619"/>
      <point x="871" y="602"/>
      <point x="871" y="582" type="curve" smooth="yes"/>
      <point x="871" y="249" type="line" smooth="yes"/>
      <point x="871" y="229"/>
      <point x="877" y="212"/>
      <point x="884" y="212" type="curve" smooth="yes"/>
      <point x="1226" y="212" type="line" smooth="yes"/>
      <point x="1241" y="212"/>
      <point x="1252" y="178"/>
      <point x="1252" y="135" type="curve" smooth="yes"/>
      <point x="1252" y="77" type="line" smooth="yes"/>
      <point x="1252" y="34"/>
      <point x="1241" y="0"/>
      <point x="1226" y="0" type="curve" smooth="yes"/>
    </contour>
    <contour>
      <point x="597" y="212" type="line" smooth="yes"/>
      <point x="604.0" y="212.0"/>
      <point x="604.0" y="1226.0"/>
      <point x="597" y="1226" type="curve" smooth="yes"/>
      <point x="525" y="1226" type="line" smooth="yes"/>
      <point x="436" y="1226"/>
      <point x="348" y="1088"/>
      <point x="348" y="721" type="curve" smooth="yes"/>
      <point x="348" y="354"/>
      <point x="436" y="212"/>
      <point x="525" y="212" type="curve" smooth="yes"/>
    </contour>
    <contour>
      <point x="651" y="1438" type="move" name="top"/>
    </contour>
  </outline>
</glyph>
<glyph name="oe" format="1">
  <advance width="1110"/>
  <unicode hex="0153"/>
  <outline>
    <contour>
      <point x="396.997" y="-10" type="curve" smooth="yes"/>
      <point x="474.392" y="-10"/>
      <point x="545.912" y="25.4375"/>
      <point x="601.113" y="128.677" type="curve"/>
      <point x="649.533" y="24.4482"/>
      <point x="728.748" y="-10.4033"/>
      <point x="817.596" y="-10.4033" type="curve" smooth="yes"/>
      <point x="972.845" y="-10.4033"/>
      <point x="1041" y="98.7275"/>
      <point x="1041" y="234" type="curve" smooth="yes"/>
      <point x="1041" y="265"/>
      <point x="1037" y="287"/>
      <point x="1035" y="297" type="curve" smooth="yes"/>
      <point x="1033" y="307"/>
      <point x="1027" y="314"/>
      <point x="1011" y="314" type="curve" smooth="yes"/>
      <point x="925.997" y="314" type="line" smooth="yes"/>
      <point x="912.997" y="314"/>
      <point x="904.997" y="308"/>
      <point x="902.997" y="290" type="curve" smooth="yes"/>
      <point x="896.997" y="237"/>
      <point x="887.997" y="165"/>
      <point x="815.997" y="165" type="curve" smooth="yes"/>
      <point x="759.997" y="165"/>
      <point x="705.997" y="199"/>
      <point x="705.997" y="421" type="curve" smooth="yes"/>
      <point x="705.997" y="437"/>
      <point x="708.997" y="455"/>
      <point x="714.997" y="455" type="curve" smooth="yes"/>
      <point x="1035" y="455" type="line" smooth="yes"/>
      <point x="1048.51" y="455"/>
      <point x="1048" y="499.913"/>
      <point x="1048" y="520" type="curve" smooth="yes"/>
      <point x="1048" y="936"/>
      <point x="917.997" y="1018"/>
      <point x="796.997" y="1018" type="curve" smooth="yes"/>
      <point x="722.653" y="1018"/>
      <point x="648.917" y="970.714"/>
      <point x="597.664" y="878.859" type="curve"/>
      <point x="541.059" y="983.198"/>
      <point x="457.96" y="1017"/>
      <point x="387.997" y="1017" type="curve" smooth="yes"/>
      <point x="268.997" y="1017"/>
      <point x="81.9971" y="1005"/>
      <point x="81.9971" y="507" type="curve" smooth="yes"/>
      <point x="81.9971" y="-1"/>
      <point x="264.997" y="-10"/>
    </contour>
    <contour>
      <point x="710.997" y="590" type="line" smooth="yes"/>
      <point x="705.997" y="590"/>
      <point x="705.997" y="618"/>
      <point x="705.997" y="632" type="curve" smooth="yes"/>
      <point x="707.997" y="763"/>
      <point x="746.997" y="843"/>
      <point x="794.997" y="843" type="curve" smooth="yes"/>
      <point x="842.997" y="843"/>
      <point x="875.997" y="759"/>
      <point x="878.997" y="627" type="curve" smooth="yes"/>
      <point x="878.997" y="614"/>
      <point x="878.997" y="590"/>
      <point x="874.997" y="590" type="curve" smooth="yes"/>
    </contour>
    <contour>
      <point x="387.997" y="165" type="curve" smooth="yes"/>
      <point x="321.997" y="165"/>
      <point x="285.997" y="209"/>
      <point x="285.997" y="508" type="curve" smooth="yes"/>
      <point x="285.997" y="782"/>
      <point x="320.997" y="842"/>
      <point x="387.997" y="842" type="curve" smooth="yes"/>
      <point x="454.997" y="842"/>
      <point x="488.997" y="782"/>
      <point x="488.997" y="508" type="curve" smooth="yes"/>
      <point x="488.997" y="209"/>
      <point x="452.997" y="165"/>
    </contour>
    <contour>
      <point x="555" y="1006" type="move" name="top"/>
    </contour>
  </outline>
</glyph>
<glyph name="florin" format="1">
  <advance width="588"/>
  <unicode hex="0192"/>
  <outline>
    <contour>
      <point x="66" y="-165" type="curve" smooth="yes"/>
      <point x="190" y="-165"/>
      <point x="329" y="-45"/>
      <point x="348" y="236" type="curve" smooth="yes"/>
      <point x="384" y="777" type="line" smooth="yes"/>
      <point x="385" y="797"/>
      <point x="390" y="814"/>
      <point x="396" y="814" type="curve" smooth="yes"/>
      <point x="492" y="814" type="line" smooth="yes"/>
      <point x="507" y="814"/>
      <point x="516" y="823"/>
      <point x="521" y="866" type="curve" smooth="yes"/>
      <point x="529" y="951" type="line" smooth="yes"/>
      <point x="533" y="991"/>
      <point x="528" y="1006"/>
      <point x="512" y="1006" type="curve" smooth="yes"/>
      <point x="401" y="1006" type="line"/>
      <point x="401" y="1006"/>
      <point x="400" y="1009"/>
      <point x="400" y="1012" type="curve" smooth="yes"/>
      <point x="412" y="1133" type="line" smooth="yes"/>
      <point x="425" y="1260"/>
      <point x="466" y="1306"/>
      <point x="519" y="1306" type="curve" smooth="yes"/>
      <point x="550" y="1306" type="line" smooth="yes"/>
      <point x="562" y="1306"/>
      <point x="565" y="1320"/>
      <point x="568" y="1357" type="curve" smooth="yes"/>
      <point x="575" y="1438" type="line" smooth="yes"/>
      <point x="576" y="1454"/>
      <point x="538" y="1475"/>
      <point x="470" y="1475" type="curve" smooth="yes"/>
      <point x="346" y="1475"/>
      <point x="222" y="1401"/>
      <point x="194" y="1074" type="curve" smooth="yes"/>
      <point x="192" y="1052"/>
      <point x="191" y="1006"/>
      <point x="184" y="1006" type="curve" smooth="yes"/>
      <point x="112" y="1006" type="line" smooth="yes"/>
      <point x="97" y="1006"/>
      <point x="88" y="988"/>
      <point x="83" y="945" type="curve" smooth="yes"/>
      <point x="75" y="866" type="line" smooth="yes"/>
      <point x="70" y="823"/>
      <point x="77" y="814"/>
      <point x="92" y="814" type="curve" smooth="yes"/>
      <point x="164" y="814" type="line" smooth="yes"/>
      <point x="171" y="814"/>
      <point x="168" y="797"/>
      <point x="167" y="777" type="curve" smooth="yes"/>
      <point x="124" y="174" type="line" smooth="yes"/>
      <point x="114" y="37"/>
      <point x="70" y="1"/>
      <point x="17" y="1" type="curve" smooth="yes"/>
      <point x="-4" y="1" type="line" smooth="yes"/>
      <point x="-16" y="1"/>
      <point x="-18" y="-13"/>
      <point x="-22" y="-50" type="curve" smooth="yes"/>
      <point x="-22" y="-50"/>
      <point x="-29.0" y="-121.0"/>
      <point x="-29" y="-121" type="curve" smooth="yes"/>
      <point x="-29" y="-173"/>
      <point x="0" y="-165"/>
    </contour>
  </outline>
</glyph>
<glyph name="uni0237" format="1">
  <advance width="451"/>
  <unicode hex="0237"/>
  <outline>
    <contour>
      <point x="31" y="-358" type="curve" smooth="yes"/>
      <point x="139" y="-358" type="line" smooth="yes"/>
      <point x="242" y="-358"/>
      <point x="356" y="-333"/>
      <point x="356" y="-8" type="curve" smooth="yes"/>
      <point x="356" y="929" type="line" smooth="yes"/>
      <point x="356" y="972"/>
      <point x="345" y="1006"/>
      <point x="330" y="1006" type="curve" smooth="yes"/>
      <point x="175" y="1006" type="line" smooth="yes"/>
      <point x="160" y="1006"/>
      <point x="149" y="972"/>
      <point x="149" y="929" type="curve" smooth="yes"/>
      <point x="149" y="-20" type="line" smooth="yes"/>
      <point x="149" y="-132"/>
      <point x="108" y="-140"/>
      <point x="70" y="-140" type="curve" smooth="yes"/>
      <point x="30" y="-140" type="line" smooth="yes"/>
      <point x="15" y="-140"/>
      <point x="4" y="-166"/>
      <point x="4" y="-207" type="curve" smooth="yes"/>
      <point x="4" y="-283" type="line" smooth="yes"/>
      <point x="4" y="-327"/>
      <point x="16" y="-358"/>
    </contour>
    <contour>
      <point x="226" y="1006" type="move" name="top"/>
    </contour>
  </outline>
</glyph>
<glyph name="breve" format="1">
  <advance width="1680"/>
  <unicode hex="02D8"/>
  <outline>
    <contour>
      <point x="626.943" y="1291.45" type="curve" smooth="yes"/>
      <point x="729.674" y="1291.45"/>
      <point x="832.589" y="1350.31"/>
      <point x="834" y="1502" type="curve"/>
      <point x="737" y="1502" type="line"/>
      <point x="737" y="1421.92"/>
      <point x="683.65" y="1399.31"/>
      <point x="630.101" y="1399.31" type="curve" smooth="yes"/>
      <point x="576.151" y="1399.31"/>
      <point x="522" y="1422.51"/>
      <point x="522" y="1502" type="curve"/>
      <point x="421" y="1502" type="line"/>
      <point x="421.706" y="1350.28"/>
      <point x="524.232" y="1291.45"/>
    </contour>
    <contour>
      <point x="627.5" y="1006" type="move" name="_top"/>
    </contour>
  </outline>
</glyph>
<glyph name="ring" format="1">
  <advance width="1629"/>
  <unicode hex="02DA"/>
  <outline>
    <contour>
      <point x="845.85" y="1702.3" type="curve" smooth="yes"/>
      <point x="770.25" y="1702.3"/>
      <point x="709.05" y="1745.5"/>
      <point x="710.85" y="1831" type="curve"/>
      <point x="709.05" y="1923.7"/>
      <point x="774.75" y="1959.7"/>
      <point x="845.85" y="1959.7" type="curve" smooth="yes"/>
      <point x="913.35" y="1959.7"/>
      <point x="979.05" y="1923.7"/>
      <point x="979.05" y="1831" type="curve" smooth="yes"/>
      <point x="979.05" y="1744.6"/>
      <point x="916.95" y="1702.3"/>
    </contour>
    <contour>
      <point x="845.85" y="1608.7" type="curve" smooth="yes"/>
      <point x="949.35" y="1608.7"/>
      <point x="1088.85" y="1669"/>
      <point x="1088.85" y="1831" type="curve" smooth="yes"/>
      <point x="1088.85" y="1997.5"/>
      <point x="960.15" y="2053.3"/>
      <point x="845.85" y="2053.3" type="curve" smooth="yes"/>
      <point x="729.75" y="2053.3"/>
      <point x="600.15" y="1997.5"/>
      <point x="600.15" y="1831" type="curve" smooth="yes"/>
      <point x="600.15" y="1668.1"/>
      <point x="739.65" y="1608.7"/>
    </contour>
    <contour>
      <point x="844.5" y="1006" type="move" name="_top"/>
    </contour>
  </outline>
</glyph>
<glyph name="dblgravecmb" format="1">
  <advance width="599"/>
  <unicode hex="030F"/>
  <outline>
    <contour>
      <point x="223" y="1171" type="curve" smooth="yes"/>
      <point x="261" y="1171" type="line" smooth="yes"/>
      <point x="271" y="1171"/>
      <point x="275" y="1176"/>
      <point x="275" y="1203" type="curve" smooth="yes"/>
      <point x="275" y="1212"/>
      <point x="275" y="1224"/>
      <point x="274" y="1238" type="curve" smooth="yes"/>
      <point x="253" y="1567" type="line" smooth="yes"/>
      <point x="250" y="1610"/>
      <point x="243" y="1622"/>
      <point x="228" y="1622" type="curve" smooth="yes"/>
      <point x="134" y="1622" type="line" smooth="yes"/>
      <point x="127" y="1622"/>
      <point x="123" y="1610"/>
      <point x="123" y="1594" type="curve" smooth="yes"/>
      <point x="123" y="1583"/>
      <point x="126" y="1569"/>
      <point x="128" y="1557" type="curve" smooth="yes"/>
      <point x="204" y="1210" type="line" smooth="yes"/>
      <point x="208" y="1193"/>
      <point x="211" y="1171"/>
    </contour>
    <contour>
      <point x="401" y="1171" type="curve" smooth="yes"/>
      <point x="438" y="1171" type="line" smooth="yes"/>
      <point x="448" y="1171"/>
      <point x="453" y="1176"/>
      <point x="453" y="1203" type="curve" smooth="yes"/>
      <point x="453" y="1212"/>
      <point x="452" y="1224"/>
      <point x="451" y="1238" type="curve" smooth="yes"/>
      <point x="431" y="1567" type="line" smooth="yes"/>
      <point x="428" y="1610"/>
      <point x="420" y="1622"/>
      <point x="405" y="1622" type="curve" smooth="yes"/>
      <point x="310" y="1622" type="line" smooth="yes"/>
      <point x="304" y="1622"/>
      <point x="301" y="1610"/>
      <point x="301" y="1594" type="curve" smooth="yes"/>
      <point x="301" y="1583"/>
      <point x="303" y="1569"/>
      <point x="305" y="1557" type="curve" smooth="yes"/>
      <point x="382" y="1210" type="line" smooth="yes"/>
      <point x="385" y="1193"/>
      <point x="387" y="1171"/>
    </contour>
    <contour>
      <point x="288" y="1006" type="move" name="_top"/>
    </contour>
  </outline>
</glyph>
<glyph name="quoteleft" format="1">
  <advance width="365"/>
  <unicode hex="2018"/>
  <outline>
    <contour>
      <point x="114" y="829" type="curve" smooth="yes"/>
      <point x="262" y="829" type="line" smooth="yes"/>
      <point x="277" y="829"/>
      <point x="283" y="843"/>
      <point x="283" y="886" type="curve" smooth="yes"/>
      <point x="283" y="1072" type="line" smooth="yes"/>
      <point x="283" y="1110"/>
      <point x="276" y="1132"/>
      <point x="262" y="1132" type="curve" smooth="yes"/>
      <point x="211" y="1132" type="line" smooth="yes"/>
      <point x="206" y="1132"/>
      <point x="205" y="1143"/>
      <point x="205" y="1159" type="curve" smooth="yes"/>
      <point x="205" y="1223"/>
      <point x="224" y="1298"/>
      <point x="259" y="1333" type="curve" smooth="yes"/>
      <point x="281" y="1355"/>
      <point x="283" y="1354"/>
      <point x="283" y="1408" type="curve" smooth="yes"/>
      <point x="283" y="1429" type="line" smooth="yes"/>
      <point x="283.0" y="1465.00578371"/>
      <point x="268.993102857" y="1480.01754286"/>
      <point x="257" y="1474" type="curve" smooth="yes"/>
      <point x="209" y="1451"/>
      <point x="88" y="1344"/>
      <point x="88" y="1107" type="curve" smooth="yes"/>
      <point x="88" y="886" type="line" smooth="yes"/>
      <point x="88" y="843"/>
      <point x="100" y="829"/>
    </contour>
  </outline>
</glyph>
<glyph name="quotedblleft" format="1">
  <advance width="674"/>
  <unicode hex="201C"/>
  <outline>
    <contour>
      <point x="114" y="829" type="curve" smooth="yes"/>
      <point x="262" y="829" type="line" smooth="yes"/>
      <point x="277" y="829"/>
      <point x="283" y="843"/>
      <point x="283" y="886" type="curve" smooth="yes"/>
      <point x="283" y="1072" type="line" smooth="yes"/>
      <point x="283" y="1110"/>
      <point x="276" y="1132"/>
      <point x="262" y="1132" type="curve" smooth="yes"/>
      <point x="211" y="1132" type="line" smooth="yes"/>
      <point x="206" y="1132"/>
      <point x="205" y="1143"/>
      <point x="205" y="1159" type="curve" smooth="yes"/>
      <point x="205" y="1223"/>
      <point x="224" y="1298"/>
      <point x="259" y="1333" type="curve" smooth="yes"/>
      <point x="281" y="1355"/>
      <point x="283" y="1354"/>
      <point x="283" y="1408" type="curve" smooth="yes"/>
      <point x="283" y="1429" type="line" smooth="yes"/>
      <point x="283.0" y="1465.00578371"/>
      <point x="268.993102857" y="1480.01754286"/>
      <point x="257" y="1474" type="curve" smooth="yes"/>
      <point x="209" y="1451"/>
      <point x="88" y="1344"/>
      <point x="88" y="1107" type="curve" smooth="yes"/>
      <point x="88" y="886" type="line" smooth="yes"/>
      <point x="88" y="843"/>
      <point x="100" y="829"/>
    </contour>
    <contour>
      <point x="406.5" y="829" type="curve" smooth="yes"/>
      <point x="554.5" y="829" type="line" smooth="yes"/>
      <point x="569.5" y="829"/>
      <point x="575.5" y="843"/>
      <point x="575.5" y="886" type="curve" smooth="yes"/>
      <point x="575.5" y="1072" type="line" smooth="yes"/>
      <point x="575.5" y="1110"/>
      <point x="568.5" y="1132"/>
      <point x="554.5" y="1132" type="curve" smooth="yes"/>
      <point x="503.5" y="1132" type="line" smooth="yes"/>
      <point x="498.5" y="1132"/>
      <point x="497.5" y="1143"/>
      <point x="497.5" y="1159" type="curve" smooth="yes"/>
      <point x="497.5" y="1223"/>
      <point x="516.5" y="1298"/>
      <point x="551.5" y="1333" type="curve" smooth="yes"/>
      <point x="573.5" y="1355"/>
      <point x="575.5" y="1354"/>
      <point x="575.5" y="1408" type="curve" smooth="yes"/>
      <point x="575.5" y="1429" type="line" smooth="yes"/>
      <point x="575.5" y="1465.00284326"/>
      <point x="561.498979989" y="1480.02049171"/>
      <point x="549.5" y="1474" type="curve" smooth="yes"/>
      <point x="501.5" y="1451"/>
      <point x="380.5" y="1344"/>
      <point x="380.5" y="1107" type="curve" smooth="yes"/>
      <point x="380.5" y="886" type="line" smooth="yes"/>
      <point x="380.5" y="843"/>
      <point x="392.5" y="829"/>
    </contour>
  </outline>
</glyph>
<glyph name="bullet" format="1">
  <advance width="1326"/>
  <unicode hex="2022"/>
  <outline>
    <contour>
      <point x="662" y="548" type="curve" smooth="yes"/>
      <point x="942" y="548"/>
      <point x="1047" y="753"/>
      <point x="1047" y="931" type="curve" smooth="yes"/>
      <point x="1047" y="1118"/>
      <point x="942" y="1318"/>
      <point x="662" y="1318" type="curve" smooth="yes"/>
      <point x="383" y="1318"/>
      <point x="278" y="1118"/>
      <point x="278" y="931" type="curve" smooth="yes"/>
      <point x="278" y="753"/>
      <point x="383" y="548"/>
    </contour>
  </outline>
</glyph>
<glyph name="guilsinglleft" format="1">
  <advance width="576"/>
  <unicode hex="2039"/>
  <outline>
    <contour>
      <point x="411" y="206" type="line" smooth="yes"/>
      <point x="414" y="202"/>
      <point x="417" y="200"/>
      <point x="419" y="200" type="curve" smooth="yes"/>
      <point x="426" y="200"/>
      <point x="434" y="219"/>
      <point x="434" y="246" type="curve" smooth="yes"/>
      <point x="434" y="406" type="line" smooth="yes"/>
      <point x="434" y="452"/>
      <point x="425" y="496"/>
      <point x="410" y="516" type="curve" smooth="yes"/>
      <point x="238" y="674" type="line" smooth="yes"/>
      <point x="234.876" y="676.869"/>
      <point x="234" y="684"/>
      <point x="234" y="690" type="curve" smooth="yes"/>
      <point x="234" y="696"/>
      <point x="233.68" y="703.006"/>
      <point x="237" y="706" type="curve" smooth="yes"/>
      <point x="410" y="862" type="line" smooth="yes"/>
      <point x="424" y="881"/>
      <point x="434" y="925"/>
      <point x="434" y="971" type="curve" smooth="yes"/>
      <point x="434" y="1114" type="line" smooth="yes"/>
      <point x="434" y="1141"/>
      <point x="426" y="1160"/>
      <point x="418" y="1160" type="curve" smooth="yes"/>
      <point x="416" y="1160"/>
      <point x="414.561" y="1158.51"/>
      <point x="411" y="1155" type="curve" smooth="yes"/>
      <point x="134" y="882" type="line" smooth="yes"/>
      <point x="114.986" y="864.153"/>
      <point x="111" y="816"/>
      <point x="111" y="769" type="curve" smooth="yes"/>
      <point x="111" y="605" type="line" smooth="yes"/>
      <point x="111" y="558"/>
      <point x="114.791" y="509.667"/>
      <point x="133" y="491" type="curve" smooth="yes"/>
    </contour>
  </outline>
</glyph>
<glyph name="uni2219" format="1">
  <advance width="434"/>
  <unicode hex="2219"/>
  <outline>
    <contour>
      <point x="130" y="0" type="curve" smooth="yes"/>
      <point x="302" y="0" type="line" smooth="yes"/>
      <point x="317" y="0"/>
      <point x="329" y="4"/>
      <point x="329" y="47" type="curve" smooth="yes"/>
      <point x="329" y="233" type="line" smooth="yes"/>
      <point x="329" y="276"/>
      <point x="317" y="280"/>
      <point x="302" y="280" type="curve" smooth="yes"/>
      <point x="130" y="280" type="line" smooth="yes"/>
      <point x="115" y="280"/>
      <point x="103" y="276"/>
      <point x="103" y="233" type="curve" smooth="yes"/>
      <point x="103" y="47" type="line" smooth="yes"/>
      <point x="103" y="4"/>
      <point x="115" y="0"/>
    </contour>
  </outline>
</glyph>
<glyph name="lozenge" format="1">
  <advance width="866"/>
  <unicode hex="25CA"/>
  <outline>
    <contour>
      <point x="311" y="-322" type="curve" smooth="yes"/>
      <point x="556" y="-322" type="line" smooth="yes"/>
      <point x="572" y="-322"/>
      <point x="585.637" y="-318.119"/>
      <point x="593" y="-277" type="curve" smooth="yes"/>
      <point x="784" y="557" type="line"/>
      <point x="784" y="564"/>
      <point x="783.594" y="592.111"/>
      <point x="782" y="599" type="curve" smooth="yes"/>
      <point x="589" y="1433" type="line" smooth="yes"/>
      <point x="581.557" y="1474.1"/>
      <point x="568" y="1478"/>
      <point x="552" y="1478" type="curve" smooth="yes"/>
      <point x="307" y="1478" type="line" smooth="yes"/>
      <point x="291" y="1478"/>
      <point x="277.363" y="1474.12"/>
      <point x="270" y="1433" type="curve" smooth="yes"/>
      <point x="82" y="599" type="line"/>
      <point x="82" y="592"/>
      <point x="82.3086" y="564.425"/>
      <point x="84" y="557" type="curve" smooth="yes"/>
      <point x="274" y="-277" type="line" smooth="yes"/>
      <point x="281.443" y="-318.104"/>
      <point x="295" y="-322"/>
    </contour>
    <contour>
      <point x="429" y="-50" type="curve" smooth="yes"/>
      <point x="427" y="-50"/>
      <point x="425.995" y="-47.002"/>
      <point x="425" y="-40" type="curve" smooth="yes"/>
      <point x="312" y="595" type="line" smooth="yes"/>
      <point x="432" y="1197" type="line" smooth="yes"/>
      <point x="432.946" y="1203.01"/>
      <point x="435" y="1206"/>
      <point x="437" y="1206" type="curve" smooth="yes"/>
      <point x="439" y="1206"/>
      <point x="439.95" y="1203"/>
      <point x="441" y="1196" type="curve" smooth="yes"/>
      <point x="555" y="596" type="line" smooth="yes"/>
      <point x="434" y="-41" type="line" smooth="yes"/>
      <point x="433.087" y="-47.0146"/>
      <point x="431" y="-50"/>
    </contour>
  </outline>
</glyph>
